<svg id="图层_1" data-name="图层 1" xmlns="http://www.w3.org/2000/svg" xmlns:xlink="http://www.w3.org/1999/xlink" viewBox="0 0 560.5 234"><defs><style>.cls-1,.cls-2{fill:none;}.cls-1{clip-rule:evenodd;}.cls-2,.cls-3,.cls-5{fill-rule:evenodd;}.cls-3{fill:#fff;}.cls-4{clip-path:url(#clip-path);}.cls-5{fill:#df3c3d;}</style><clipPath id="clip-path" transform="translate(265.5 101.5)"><path class="cls-1" d="M294.5,99.5v6a6,6,0,1,0,0,12v15h-560v-17a6,6,0,0,0,6-6,6,6,0,0,0-6-6v-4a6,6,0,0,0,6-6,6,6,0,0,0-6-6v-4a6,6,0,0,0,6-6,6,6,0,0,0-6-6v-4a6,6,0,0,0,6-6,6,6,0,0,0-6-6v-4a6,6,0,0,0,6-6,6,6,0,0,0-6-6v-4a6,6,0,0,0,6-6,6,6,0,0,0-6-6v-4a6,6,0,0,0,6-6,6,6,0,0,0-6-6v-4a6,6,0,0,0,6-6,6,6,0,0,0-6-6v-4a6,6,0,0,0,6-6,6,6,0,0,0-6-6v-4a6,6,0,0,0,6-6,6,6,0,0,0-6-6v-4a6,6,0,0,0,6-6,6,6,0,0,0-6-6v-4a6,6,0,0,0,6-6,6,6,0,0,0-6-6v-4a6,6,0,0,0,6-6,6,6,0,0,0-6-6v-13h560v13a6,6,0,0,0-6,6,6,6,0,0,0,6,6v4a6,6,0,0,0-6,6,6,6,0,0,0,6,6v4a6,6,0,0,0-6,6,6,6,0,0,0,6,6v4a6,6,0,0,0-6,6,6,6,0,0,0,6,6v4a6,6,0,0,0-6,6,6,6,0,0,0,6,6v4a6,6,0,0,0-6,6,6,6,0,0,0,6,6v4a6,6,0,1,0,0,12v4a6,6,0,0,0,0,12v4a6,6,0,1,0,0,12v4a6,6,0,1,0,0,12v4a6,6,0,0,0,0,12v4A6,6,0,1,0,294.5,99.5Z"/></clipPath></defs><title>优惠券背景</title><path class="cls-2" d="M2.5-85.5h271a6,6,0,0,1,6,6v194a6,6,0,0,1-6,6H2.5a6,6,0,0,1-6-6v-194A6,6,0,0,1,2.5-85.5Z" transform="translate(265.5 101.5)"/><path class="cls-3" d="M294.5,99.5v6a6,6,0,1,0,0,12v15h-560v-17a6,6,0,0,0,6-6,6,6,0,0,0-6-6v-4a6,6,0,0,0,6-6,6,6,0,0,0-6-6v-4a6,6,0,0,0,6-6,6,6,0,0,0-6-6v-4a6,6,0,0,0,6-6,6,6,0,0,0-6-6v-4a6,6,0,0,0,6-6,6,6,0,0,0-6-6v-4a6,6,0,0,0,6-6,6,6,0,0,0-6-6v-4a6,6,0,0,0,6-6,6,6,0,0,0-6-6v-4a6,6,0,0,0,6-6,6,6,0,0,0-6-6v-4a6,6,0,0,0,6-6,6,6,0,0,0-6-6v-4a6,6,0,0,0,6-6,6,6,0,0,0-6-6v-4a6,6,0,0,0,6-6,6,6,0,0,0-6-6v-4a6,6,0,0,0,6-6,6,6,0,0,0-6-6v-4a6,6,0,0,0,6-6,6,6,0,0,0-6-6v-13h560v13a6,6,0,0,0-6,6,6,6,0,0,0,6,6v4a6,6,0,0,0-6,6,6,6,0,0,0,6,6v4a6,6,0,0,0-6,6,6,6,0,0,0,6,6v4a6,6,0,0,0-6,6,6,6,0,0,0,6,6v4a6,6,0,0,0-6,6,6,6,0,0,0,6,6v4a6,6,0,0,0-6,6,6,6,0,0,0,6,6v4a6,6,0,1,0,0,12v4a6,6,0,0,0,0,12v4a6,6,0,1,0,0,12v4a6,6,0,1,0,0,12v4a6,6,0,0,0,0,12v4A6,6,0,1,0,294.5,99.5Z" transform="translate(265.5 101.5)"/><path class="cls-2" d="M295,99.5v6a6,6,0,1,0,0,12v15H-265v-17a6,6,0,0,0,6-6,6,6,0,0,0-6-6v-4a6,6,0,0,0,6-6,6,6,0,0,0-6-6v-4a6,6,0,0,0,6-6,6,6,0,0,0-6-6v-4a6,6,0,0,0,6-6,6,6,0,0,0-6-6v-4a6,6,0,0,0,6-6,6,6,0,0,0-6-6v-4a6,6,0,0,0,6-6,6,6,0,0,0-6-6v-4a6,6,0,0,0,6-6,6,6,0,0,0-6-6v-4a6,6,0,0,0,6-6,6,6,0,0,0-6-6v-4a6,6,0,0,0,6-6,6,6,0,0,0-6-6v-4a6,6,0,0,0,6-6,6,6,0,0,0-6-6v-4a6,6,0,0,0,6-6,6,6,0,0,0-6-6v-4a6,6,0,0,0,6-6,6,6,0,0,0-6-6v-4a6,6,0,0,0,6-6,6,6,0,0,0-6-6v-13H295v13a6,6,0,0,0-6,6,6,6,0,0,0,6,6v4a6,6,0,0,0-6,6,6,6,0,0,0,6,6v4a6,6,0,0,0-6,6,6,6,0,0,0,6,6v4a6,6,0,0,0-6,6,6,6,0,0,0,6,6v4a6,6,0,0,0-6,6,6,6,0,0,0,6,6v4a6,6,0,0,0-6,6,6,6,0,0,0,6,6v4a6,6,0,1,0,0,12v4a6,6,0,0,0,0,12v4a6,6,0,1,0,0,12v4a6,6,0,1,0,0,12v4a6,6,0,0,0,0,12v4A6,6,0,1,0,295,99.5Z" transform="translate(265.5 101.5)"/><g class="cls-4"><path class="cls-5" d="M-265.5-101.5H-49.34v234H-265.5v-234Z" transform="translate(265.5 101.5)"/><path class="cls-5" d="M-35.5-6.5l-25-12-0.89,27Z" transform="translate(265.5 101.5)"/></g><path class="cls-2" d="M294.5,99.5v6a6,6,0,1,0,0,12v15h-560v-17a6,6,0,0,0,6-6,6,6,0,0,0-6-6v-4a6,6,0,0,0,6-6,6,6,0,0,0-6-6v-4a6,6,0,0,0,6-6,6,6,0,0,0-6-6v-4a6,6,0,0,0,6-6,6,6,0,0,0-6-6v-4a6,6,0,0,0,6-6,6,6,0,0,0-6-6v-4a6,6,0,0,0,6-6,6,6,0,0,0-6-6v-4a6,6,0,0,0,6-6,6,6,0,0,0-6-6v-4a6,6,0,0,0,6-6,6,6,0,0,0-6-6v-4a6,6,0,0,0,6-6,6,6,0,0,0-6-6v-4a6,6,0,0,0,6-6,6,6,0,0,0-6-6v-4a6,6,0,0,0,6-6,6,6,0,0,0-6-6v-4a6,6,0,0,0,6-6,6,6,0,0,0-6-6v-4a6,6,0,0,0,6-6,6,6,0,0,0-6-6v-13h560v13a6,6,0,0,0-6,6,6,6,0,0,0,6,6v4a6,6,0,0,0-6,6,6,6,0,0,0,6,6v4a6,6,0,0,0-6,6,6,6,0,0,0,6,6v4a6,6,0,0,0-6,6,6,6,0,0,0,6,6v4a6,6,0,0,0-6,6,6,6,0,0,0,6,6v4a6,6,0,0,0-6,6,6,6,0,0,0,6,6v4a6,6,0,1,0,0,12v4a6,6,0,0,0,0,12v4a6,6,0,1,0,0,12v4a6,6,0,1,0,0,12v4a6,6,0,0,0,0,12v4A6,6,0,1,0,294.5,99.5Z" transform="translate(265.5 101.5)"/></svg>