<svg xmlns="http://www.w3.org/2000/svg" xmlns:xlink="http://www.w3.org/1999/xlink" width="717" height="261" viewBox="0 0 717 261">
  <defs>
    <style>
      .cls-1 {
        fill: #fff;
        fill-rule: evenodd;
        filter: url(#filter);
      }
    </style>
    <filter id="filter" x="17" y="102" width="717" height="261" filterUnits="userSpaceOnUse">
      <feOffset result="offset" dy="6" in="SourceAlpha"/>
      <feGaussianBlur result="blur" stdDeviation="3.742"/>
      <feFlood result="flood" flood-opacity="0.15"/>
      <feComposite result="composite" operator="in" in2="blur"/>
      <feBlend result="blend" in="SourceGraphic"/>
    </filter>
  </defs>
  <path id="椭圆_1" data-name="椭圆 1" class="cls-1" d="M720,310v6c-4.083,0-7.393,2.686-7.393,6s3.31,6,7.393,6v15H30V326c4.083,0,7.393-2.686,7.393-6s-3.31-6-7.393-6v-4c4.083,0,7.393-2.686,7.393-6s-3.31-6-7.393-6v-4c4.083,0,7.393-2.686,7.393-6s-3.31-6-7.393-6v-4c4.083,0,7.393-2.686,7.393-6s-3.31-6-7.393-6v-4c4.083,0,7.393-2.686,7.393-6s-3.31-6-7.393-6v-4c4.083,0,7.393-2.686,7.393-6s-3.31-6-7.393-6v-4c4.083,0,7.393-2.686,7.393-6s-3.31-6-7.393-6v-4c4.083,0,7.393-2.686,7.393-6s-3.31-6-7.393-6v-4c4.083,0,7.393-2.686,7.393-6s-3.31-6-7.393-6v-4c4.083,0,7.393-2.686,7.393-6s-3.31-6-7.393-6v-4c4.083,0,7.393-2.686,7.393-6s-3.31-6-7.393-6v-4c4.083,0,7.393-2.686,7.393-6s-3.31-6-7.393-6v-4c4.083,0,7.393-2.686,7.393-6s-3.31-6-7.393-6V109H720v13c-4.083,0-7.393,2.686-7.393,6s3.31,6,7.393,6v4c-4.083,0-7.393,2.686-7.393,6s3.31,6,7.393,6v4c-4.083,0-7.393,2.686-7.393,6s3.31,6,7.393,6v4c-4.083,0-7.393,2.686-7.393,6s3.31,6,7.393,6v4c-4.083,0-7.393,2.686-7.393,6s3.31,6,7.393,6v4c-4.083,0-7.393,2.686-7.393,6s3.31,6,7.393,6v4c-4.083,0-7.393,2.686-7.393,6s3.31,6,7.393,6v4c-4.083,0-7.393,2.686-7.393,6s3.31,6,7.393,6v4c-4.083,0-7.393,2.686-7.393,6s3.31,6,7.393,6v4c-4.083,0-7.393,2.686-7.393,6s3.31,6,7.393,6v4c-4.083,0-7.393,2.686-7.393,6s3.31,6,7.393,6v4c-4.083,0-7.393,2.686-7.393,6S715.917,310,720,310Z" transform="translate(-17 -102)"/>
</svg>
