<svg id="图层_1" data-name="图层 1" xmlns="http://www.w3.org/2000/svg" viewBox="0 0 22 21.2"><defs><style>.cls-1{fill:#005aff;}</style></defs><title>table_icon_like_click</title><path class="cls-1" d="M7.36-6.56c2,0.5,2.71,1.9,2.64,3.81C10-1.57,9.8-.39,9.69.89H14.1c2.57,0,3.69,1.44,3.12,4s-1.08,4.81-1.62,7.22c-0.42,1.88-1.25,2.56-3.2,2.56H-3.18c-1.29,0-1.44-.16-1.44-1.46,0-3.31,0-6.61,0-9.92A1.2,1.2,0,0,1-3.22,1.81a23.45,23.45,0,0,0,3-.08A5.29,5.29,0,0,0,4.5-3.12,3.38,3.38,0,0,1,6.93-6.56H7.36ZM0.83,12.87H12.74a1.17,1.17,0,0,0,1.13-1.22q0.81-3.55,1.59-7.11c0.34-1.55.09-1.86-1.54-1.87s-3.41,0-5.12,0C7.34,2.65,7,2.2,7.63.85a7.89,7.89,0,0,0,.53-4.58C8-4.55,7.26-5,6.78-4.45a2,2,0,0,0-.42,1.17A7.32,7.32,0,0,1,1.48,3.22a1.07,1.07,0,0,0-.62.71c0,2.93,0,5.86,0,8.95h0Zm-1.82,0V3.7H-2.78v9.13H-1Z" transform="translate(4.63 6.56)"/></svg>