<svg id="图层_1" data-name="图层 1" xmlns="http://www.w3.org/2000/svg" viewBox="0 0 14 15.05"><defs><style>.cls-1{fill:#ff7f82;}</style></defs><title>table_icon_close_default</title><path class="cls-1" d="M10.11-.28A7,7,0,0,1,11.36.86a7.49,7.49,0,0,1,.94,1.38,6.88,6.88,0,0,1,.59,1.57,7,7,0,0,1,.2,1.68,6.9,6.9,0,0,1-.56,2.76A7.22,7.22,0,0,1,11,10.51,7.14,7.14,0,0,1,8.82,12a6.7,6.7,0,0,1-2.73.56A6.66,6.66,0,0,1,3.37,12a7.23,7.23,0,0,1-2.23-1.52A7,7,0,0,1-.36,8.26a7.14,7.14,0,0,1-.35-4.4A7.34,7.34,0,0,1-.16,2.32,6.76,6.76,0,0,1,.74,1,7.64,7.64,0,0,1,1.92-.17,1,1,0,0,1,2.67-.36a1,1,0,0,1,.65.4A1,1,0,0,1,3.5.77a1,1,0,0,1-.39.66A4.9,4.9,0,0,0,1.6,3.23,5.06,5.06,0,0,0,1.08,5.5a5,5,0,0,0,.39,2,5.06,5.06,0,0,0,2.67,2.7,4.9,4.9,0,0,0,3.89,0,5.13,5.13,0,0,0,1.6-1.09,5.19,5.19,0,0,0,1.08-1.61,4.92,4.92,0,0,0,.4-2,5,5,0,0,0-.56-2.33A4.92,4.92,0,0,0,9,1.36,1,1,0,0,1,8.55.71,1,1,0,0,1,8.71,0a1,1,0,0,1,.64-0.4,1,1,0,0,1,.75.17h0Zm-4,5.83a0.94,0.94,0,0,1-.7-0.29,1,1,0,0,1-.29-0.7v-6a1,1,0,0,1,.29-0.71,0.93,0.93,0,0,1,.7-0.3,1,1,0,0,1,.71.3,1,1,0,0,1,.29.71v6a1,1,0,0,1-1,1h0Z" transform="translate(0.91 2.47)"/></svg>