<svg id="图层_1" data-name="图层 1" xmlns="http://www.w3.org/2000/svg" viewBox="0 0 16 14.2"><defs><style>.cls-1{fill:#7facff;}</style></defs><title>table_icon_report_default</title><path class="cls-1" d="M14.08,9.45L7.36-2.16a1.32,1.32,0,0,0-1.12-.63,1.26,1.26,0,0,0-1.12.63L-1.59,9.45a1.48,1.48,0,0,0,0,1.33,1.32,1.32,0,0,0,1.12.63H13a1.3,1.3,0,0,0,1.15-.7A1.33,1.33,0,0,0,14.08,9.45ZM6.8,8.65a0.54,0.54,0,0,1-.55.56,0.56,0.56,0,0,1-.57-0.56V8a0.56,0.56,0,0,1,.57-0.56A0.51,0.51,0,0,1,6.8,8V8.65Zm0-2.79a0.54,0.54,0,0,1-.55.56,0.56,0.56,0,0,1-.57-0.56V2.56A0.56,0.56,0,0,1,6.25,2a0.51,0.51,0,0,1,.55.56v3.3h0Z" transform="translate(1.75 2.79)"/></svg>