<svg id="图层_1" data-name="图层 1" xmlns="http://www.w3.org/2000/svg" viewBox="0 0 17.99 16"><defs><style>.cls-1{fill:#7facff;}</style></defs><title>table_icon_apply-merchant_default</title><path class="cls-1" d="M1.23,13a0.67,0.67,0,0,1-.67-0.67A7.25,7.25,0,0,1,2,7.92a7.43,7.43,0,0,1,3.2-2.43,4.67,4.67,0,1,1,7.33-3.84A4.68,4.68,0,0,1,7.94,6.32H7.85a6,6,0,0,0-5.95,6,0.67,0.67,0,0,1-.67.67h0ZM7.89-1.65A3.32,3.32,0,1,0,11.2,1.66,3.32,3.32,0,0,0,7.89-1.65Z" transform="translate(2.99 3.01)"/><path class="cls-1" d="M7.89-2.75a4.41,4.41,0,0,0-2.08,8.3,7.09,7.09,0,0,0-5,6.76,0.42,0.42,0,0,0,.84,0,6.24,6.24,0,0,1,6.2-6.24H7.94A4.41,4.41,0,0,0,7.89-2.75Zm0,8a3.57,3.57,0,1,1,3.57-3.57A3.57,3.57,0,0,1,7.89,5.23Z" transform="translate(2.99 3.01)"/><path class="cls-1" d="M-2.32,11.66A0.67,0.67,0,0,1-3,11,6.32,6.32,0,0,1,.66,5.18,4.15,4.15,0,0,1-.86,2,4,4,0,0,1,3-2.1a0.67,0.67,0,0,1,.67.67A0.67,0.67,0,0,1,3-.76,2.62,2.62,0,0,0,.49,1.95,2.62,2.62,0,0,0,3,4.66,0.68,0.68,0,0,1,3,6a4.82,4.82,0,0,0-4.65,5A0.67,0.67,0,0,1-2.32,11.66Z" transform="translate(2.99 3.01)"/><path class="cls-1" d="M3,5.77A5.07,5.07,0,0,0-1.9,11a0.42,0.42,0,0,1-.42.42A0.42,0.42,0,0,1-2.74,11,6.05,6.05,0,0,1,1.19,5.24,3.84,3.84,0,0,1-.6,2,3.72,3.72,0,0,1,3-1.85a0.42,0.42,0,0,1,.42.42A0.42,0.42,0,0,1,3-1a2.88,2.88,0,0,0-2.77,3A2.87,2.87,0,0,0,3,4.91a0.42,0.42,0,0,1,.42.42A0.42,0.42,0,0,1,3,5.77H3ZM11.55,13a0.71,0.71,0,0,1-.71-0.71v-2h-2a0.71,0.71,0,0,1,0-1.42h2v-2a0.71,0.71,0,1,1,1.42,0v2h2a0.71,0.71,0,0,1,0,1.42h-2v2a0.71,0.71,0,0,1-.71.71h0Z" transform="translate(2.99 3.01)"/><path class="cls-1" d="M14.29,10H12v2.27a0.45,0.45,0,0,1-.91,0V10H8.82a0.45,0.45,0,0,1,0-.91H11.1V6.85a0.45,0.45,0,1,1,.91,0V9.11h2.28A0.45,0.45,0,0,1,14.29,10Z" transform="translate(2.99 3.01)"/><circle class="cls-1" cx="11.1" cy="4.7" r="3.54"/></svg>