<svg id="图层_1" data-name="图层 1" xmlns="http://www.w3.org/2000/svg" viewBox="0 0 22 20.22"><defs><style>.cls-1{fill:#005aff;}</style></defs><title>table_icon_comment_click</title><path class="cls-1" d="M-0.4,2.81a1.6,1.6,0,1,0,1.6-1.6A1.6,1.6,0,0,0-.4,2.81Z" transform="translate(4.64 5.78)"/><path class="cls-1" d="M4.76,2.81a1.6,1.6,0,1,0,1.6-1.6A1.6,1.6,0,0,0,4.76,2.81Z" transform="translate(4.64 5.78)"/><path class="cls-1" d="M9.92,2.81a1.6,1.6,0,1,0,1.6-1.6A1.6,1.6,0,0,0,9.92,2.81Z" transform="translate(4.64 5.78)"/><path class="cls-1" d="M6.36-5.78c-6.08,0-11,3.85-11,8.59A8,8,0,0,0-.79,9.34L0,13.88a0.75,0.75,0,0,0,0,.14h0v0h0v0h0v0h0v0h0l0,0h0a0.7,0.7,0,0,0,.26.2h0a0.65,0.65,0,0,0,.32,0H0.89a0.65,0.65,0,0,0,.23-0.1l4.25-2.95c0.33,0,.66,0,1,0,6.08,0,11-3.85,11-8.59S12.44-5.78,6.36-5.78ZM13.29,7.8a10.13,10.13,0,0,1-3.08,1.62,12.28,12.28,0,0,1-3.85.6C6,10,5.62,10,5.25,10h0a0.68,0.68,0,0,0-.47.12L1.21,12.58,0.5,8.79A0.68,0.68,0,0,0,.18,8.33h0C-0.08,8.17-.33,8-0.57,7.8a7.42,7.42,0,0,1-2-2.3,5.62,5.62,0,0,1-.7-2.69A5.62,5.62,0,0,1-2.57.12a7.42,7.42,0,0,1,2-2.3A10.13,10.13,0,0,1,2.51-3.8a12.28,12.28,0,0,1,3.85-.61,12.28,12.28,0,0,1,3.85.61,10.16,10.16,0,0,1,3.08,1.62,7.42,7.42,0,0,1,2,2.3A5.62,5.62,0,0,1,16,2.81a5.62,5.62,0,0,1-.7,2.69A7.38,7.38,0,0,1,13.29,7.8Z" transform="translate(4.64 5.78)"/></svg>