<svg xmlns="http://www.w3.org/2000/svg" width="28.937" height="29" viewBox="0 0 28.937 29">
  <defs>
    <style>
      .cls-1 {
        fill: #5f95f8;
        fill-rule: evenodd;
      }
    </style>
  </defs>
  <path id="形状_7_拷贝_3" data-name="形状 7 拷贝 3" class="cls-1" d="M1002.53,211a14.5,14.5,0,1,0,14.48,14.5A14.486,14.486,0,0,0,1002.53,211Zm3.99,15.433,3.75,3.763a1.363,1.363,0,0,1,0,1.924l-1.07,1.072a1.36,1.36,0,0,1-1.92,0l-3.76-3.763a1.36,1.36,0,0,0-1.92,0l-3.753,3.763a1.359,1.359,0,0,1-1.919,0l-1.071-1.072a1.368,1.368,0,0,1,0-1.924l3.757-3.763a1.365,1.365,0,0,0,0-1.923l-3.757-3.764a1.365,1.365,0,0,1,0-1.923l1.07-1.072a1.36,1.36,0,0,1,1.92,0l3.753,3.763a1.36,1.36,0,0,0,1.92,0l3.76-3.763a1.36,1.36,0,0,1,1.92,0l1.07,1.072a1.362,1.362,0,0,1,0,1.923l-3.75,3.764A1.362,1.362,0,0,0,1006.52,226.433Z" transform="translate(-988.063 -211)"/>
</svg>
