<svg id="图层_1" data-name="图层 1" xmlns="http://www.w3.org/2000/svg" viewBox="0 0 14 14"><defs><style>.cls-1{fill:#fff;}</style></defs><title>nav_icon_recruit_default</title><path class="cls-1" d="M7,0a7,7,0,1,0,7,7A7,7,0,0,0,7,0ZM7.44,13.11V10.94H6.56v2.17A6.13,6.13,0,0,1,.89,7.44H3.06V6.56H0.89A6.13,6.13,0,0,1,6.56.89V2.63H7.44V0.89a6.13,6.13,0,0,1,5.67,5.67H10.94V7.44h2.17A6.13,6.13,0,0,1,7.44,13.11ZM8.55,8a1.4,1.4,0,0,1-.77-0.46,1.4,1.4,0,0,1,.44-1,2.88,2.88,0,0,0,.35-1.09A1.56,1.56,0,0,0,6.79,3.61,1.49,1.49,0,0,0,5.44,5.09,2.67,2.67,0,0,0,6,6.89a0.76,0.76,0,0,1,.26.53,0.63,0.63,0,0,1-.52.42,5.88,5.88,0,0,0-.63.31,1.89,1.89,0,0,0-1,.9c-0.23.85,0.55,1.11,1.2,1.23A9.67,9.67,0,0,0,7,10.4c0.93,0,2.6,0,2.87-.74a1.16,1.16,0,0,0,0-.64A2.3,2.3,0,0,0,8.55,8Z" transform="translate(0 0)"/></svg>