<svg id="图层_1" data-name="图层 1" xmlns="http://www.w3.org/2000/svg" viewBox="0 0 14 14"><defs><style>.cls-1{fill:#ccb0d5;}</style></defs><title>nav_icon_commendity_default</title><path class="cls-1" d="M2.7,0A3.08,3.08,0,0,0-.37,3.06,3.08,3.08,0,0,0,2.7,6.13H5.76V3.06A3,3,0,0,0,2.7,0ZM13.63,3.06a3.06,3.06,0,0,0-6.13,0V6.13h3.06A3,3,0,0,0,13.63,3.06ZM7.95,5.54V3.06a2.41,2.41,0,0,1,.73-1.75A2.69,2.69,0,0,1,10.42.58a2.41,2.41,0,0,1,1.75.73,2.69,2.69,0,0,1,.73,1.75,2.41,2.41,0,0,1-.73,1.75,2.69,2.69,0,0,1-1.75.73H7.95Zm2.62,2.19H7.36v3.06A3.06,3.06,0,1,0,10.57,7.73ZM-0.37,10.94A3.08,3.08,0,0,0,2.7,14a3.08,3.08,0,0,0,3.06-3.06V7.73H2.7A3.21,3.21,0,0,0-.37,10.94Z" transform="translate(0.37 0)"/></svg>