<svg id="图层_1" data-name="图层 1" xmlns="http://www.w3.org/2000/svg" viewBox="0 0 12.37 13.07"><defs><style>.cls-1{fill:#ccb0d5;}</style></defs><title>nav_icon_community_default</title><path class="cls-1" d="M7.07,3.85a3.06,3.06,0,0,1,2.25.93A3.08,3.08,0,0,1,10.25,7a4.4,4.4,0,0,1-.89,2.54A3.74,3.74,0,0,0,10.16,9a3,3,0,0,0,.65-0.86A2.4,2.4,0,0,0,11.1,7,3.87,3.87,0,0,0,9.92,4.19,3.89,3.89,0,0,0,7.07,3h0A3.89,3.89,0,0,0,4.21,4.19,3.87,3.87,0,0,0,3,7a2.37,2.37,0,0,0,.52,1.52,3.84,3.84,0,0,0,1.2,1A4.54,4.54,0,0,1,3.86,7,3.14,3.14,0,0,1,4.8,4.78a3.05,3.05,0,0,1,2.25-.93h0Zm0-3A6.17,6.17,0,0,0,1.7,3.93,6.06,6.06,0,0,0,.87,7a6.16,6.16,0,0,0,.55,2.57,5.31,5.31,0,0,0,3.73,2.95L5,12.32A5.52,5.52,0,0,1,3.38,11,6.85,6.85,0,0,1,2.2,9.24a5.36,5.36,0,0,1,.23-4.89A5.3,5.3,0,0,1,7.06,1.69a5.3,5.3,0,0,1,4.62,2.66A5.27,5.27,0,0,1,12.39,7a5.88,5.88,0,0,1-.9,3.11,5.48,5.48,0,0,1-2.33,2.16l-0.1.25a5.9,5.9,0,0,0,3-2A5.48,5.48,0,0,0,13.24,7a6.06,6.06,0,0,0-.83-3.11A6.17,6.17,0,0,0,7.06.86h0Zm1.79,8a7,7,0,0,1,0,1,8.45,8.45,0,0,1-.12,1q-0.09.46-.2,0.9t-0.23.81q-0.12.36-.23,0.64l-0.17.44-0.07.15a1.76,1.76,0,0,1-.76.15,2.08,2.08,0,0,1-.39,0l-0.28-.07-0.09,0a2.67,2.67,0,0,1-.14-0.3q-0.08-.2-0.28-0.78T5.55,11.56a11.31,11.31,0,0,1-.23-1.3,6.89,6.89,0,0,1-.05-1.36l0-.09a1.16,1.16,0,0,1,.16-0.22,1.56,1.56,0,0,1,.31-0.28,2,2,0,0,1,.52-0.23A2.67,2.67,0,0,1,7.07,8a2.87,2.87,0,0,1,.77.09,1.56,1.56,0,0,1,.52.23,2.1,2.1,0,0,1,.3.27,0.64,0.64,0,0,1,.15.23ZM8.41,6.18A1.34,1.34,0,0,1,7.06,7.54,1.34,1.34,0,0,1,5.7,6.18,1.34,1.34,0,0,1,7.06,4.82,1.34,1.34,0,0,1,8.41,6.18Z" transform="translate(-0.87 -0.86)"/></svg>