<svg id="图层_1" data-name="图层 1" xmlns="http://www.w3.org/2000/svg" viewBox="0 0 14 11.06"><defs><style>.cls-1{fill:#fff;}</style></defs><title>nav_icon_stat_default</title><path class="cls-1" d="M7,9.16v3.16a0.22,0.22,0,0,0,.22.22H8.89a0.22,0.22,0,0,0,.22-0.22h0V8.11L7.45,9.5,7,9.16H7ZM0,12.31a0.22,0.22,0,0,0,.22.22H1.88a0.22,0.22,0,0,0,.22-0.22h0V9.09L0,10.77v1.54ZM3.52,8v4.36a0.22,0.22,0,0,0,.22.22H5.39a0.22,0.22,0,0,0,.22-0.22h0V8l-1-.86Zm7,4.36a0.22,0.22,0,0,0,.22.22H12.4a0.22,0.22,0,0,0,.22-0.22h0V5.17L10.54,6.92v5.39h0ZM10.18,1.47a0.07,0.07,0,0,0-.08.07,0.07,0.07,0,0,0,0,.05l1.57,1.5L7.45,6.65,4.57,4.26,0,7.92V9.5L4.56,5.84,7.45,8.23l5.13-4.29,1.3,1.24a0.08,0.08,0,0,0,.11,0,0.07,0.07,0,0,0,0-.05V1.55a0.07,0.07,0,0,0-.07-0.07H10.18Z" transform="translate(0 -1.47)"/></svg>