<svg id="图层_1" data-name="图层 1" xmlns="http://www.w3.org/2000/svg" viewBox="0 0 12.01 14"><defs><style>.cls-1{fill:#005aff;}</style></defs><title>person_icon_information_default</title><path class="cls-1" d="M11-.48H5a0.71,0.71,0,0,0-.72.7V2.56a0.7,0.7,0,0,1-.72.7H1.14A0.7,0.7,0,0,0,.42,4v8.17a1.43,1.43,0,0,0,1.44,1.4H11a1.43,1.43,0,0,0,1.44-1.4V0.92A1.43,1.43,0,0,0,11-.48h0ZM9.43,10h-6a0.35,0.35,0,1,1,0-.7h6A0.35,0.35,0,1,1,9.43,10Zm0-2.33h-6a0.35,0.35,0,1,1,0-.7h6A0.35,0.35,0,1,1,9.43,7.69Zm0-2.33H5.59a0.35,0.35,0,1,1,0-.7H9.43A0.35,0.35,0,1,1,9.43,5.36ZM0.95,2.58H2.8a0.7,0.7,0,0,0,.72-0.7V0c0-.26-0.14-0.33-0.34-0.14l-2.4,2.4C0.61,2.42.68,2.58,0.95,2.58Z" transform="translate(-0.42 0.48)"/></svg>