<svg id="图层_1" data-name="图层 1" xmlns="http://www.w3.org/2000/svg" viewBox="0 0 16 15.13"><defs><style>.cls-1{fill:#7facff;}</style></defs><title>table_icon_stoptalking_default</title><path class="cls-1" d="M11,6.13A5,5,0,0,1,14.79,7.9,5.37,5.37,0,0,0,15,6.49C15,2.9,11.41,0,7,0S-1,2.88-1,6.49a5.83,5.83,0,0,0,2.52,4.74c0.2,0.17.85,0.49-.39,2.25C0.85,14.15,2.27,14,2.5,14c1.41-.16,2-0.94,2.86-1.08a9.66,9.66,0,0,0,1,.07A5,5,0,0,1,11,6.13Zm0,1a4,4,0,1,0,4,4A4,4,0,0,0,11,7.13Zm0,7A3,3,0,0,1,8.56,9.39l4.17,4.18A3,3,0,0,1,11,14.13Zm2.44-1.27L9.26,8.69A3,3,0,0,1,13.44,12.86Z" transform="translate(1)"/></svg>