<svg id="图层_1" data-name="图层 1" xmlns="http://www.w3.org/2000/svg" viewBox="0 0 16 18"><defs><style>.cls-1{fill:#005aff;}</style></defs><title>table_icon_delete_hover</title><path class="cls-1" d="M6.69,20.12a1,1,0,0,0,1,.93h12a1,1,0,0,0,1-.93V7.71h-14V20.12Zm10-9.62a1,1,0,0,1,2,0v7.76a1,1,0,0,1-2,0V10.5Zm-4,0a1,1,0,0,1,2,0v7.76a1,1,0,0,1-2,0V10.5Zm-4,0a1,1,0,0,1,2,0v7.76a1,1,0,0,1-2,0V10.5Zm12-5.59h-5V4a1,1,0,0,0-1-.93h-2a1,1,0,0,0-1,.93V4.91h-5a1,1,0,0,0-1,.93V6.78h16V5.85A1,1,0,0,0,20.69,4.91Z" transform="translate(-5.69 -3.05)"/></svg>