<svg id="图层_1" data-name="图层 1" xmlns="http://www.w3.org/2000/svg" viewBox="0 0 16 18"><defs><style>.cls-1{fill:#7facff;}</style></defs><title>table_icon_delete_default</title><path class="cls-1" d="M1,14.83a1,1,0,0,0,1,.93H14a1,1,0,0,0,1-.93V2.42H1V14.83ZM11,5.21a1,1,0,0,1,2,0V13a1,1,0,0,1-2,0V5.21Zm-4,0a1,1,0,0,1,2,0V13a1,1,0,0,1-2,0V5.21Zm-4,0a1,1,0,0,1,1-.93,1,1,0,0,1,1,.93V13a1,1,0,0,1-1,.93A1,1,0,0,1,3,13V5.21ZM15-.37H10V-1.31a1,1,0,0,0-1-.93H7a1,1,0,0,0-1,.93v0.93H1A1,1,0,0,0,0,.56V1.49H16V0.56A1,1,0,0,0,15-.37Z" transform="translate(0 2.24)"/></svg>