<svg xmlns="http://www.w3.org/2000/svg" width="37" height="40" viewBox="0 0 37 40">
  <defs>
    <style>
      .cls-1 {
        fill: #fdf7ee;
        fill-rule: evenodd;
      }
    </style>
  </defs>
  <path id="留言" class="cls-1" d="M511.565,276.611L500.594,265.42a1.436,1.436,0,0,0-1.011-.422,1.389,1.389,0,0,0-1,.445l-20.418,21.751a1.54,1.54,0,0,0-.384.763l-2.756,15.288a1.506,1.506,0,0,0,.411,1.335,1.381,1.381,0,0,0,.989.416,1.484,1.484,0,0,0,.312-0.035l13-3.017a1.426,1.426,0,0,0,.717-0.416L511.6,278.691a1.524,1.524,0,0,0-.039-2.08h0Zm-21.608,21.183-5.446-5.618a1.379,1.379,0,0,0-2.012.012,1.515,1.515,0,0,0,.011,2.092l5,5.15-9.281,2.156,2.279-12.647,19.118-20.369,8.947,9.127-18.612,20.1h0Z" transform="translate(-475 -265)"/>
</svg>
