<svg xmlns="http://www.w3.org/2000/svg" width="42" height="38" viewBox="0 0 42 38">
  <defs>
    <style>
      .cls-1 {
        fill: #fff;
        fill-rule: evenodd;
      }
    </style>
  </defs>
  <path id="形状_2" data-name="形状 2" class="cls-1" d="M615.187,33.222a7.394,7.394,0,0,1,5.341,2.3,8.274,8.274,0,0,1-.009,11.4L606,62.058,591.47,46.906a8.273,8.273,0,0,1,0-11.385,7.4,7.4,0,0,1,5.342-2.3A6.335,6.335,0,0,1,601.6,35.4l1.152,1.41A4.187,4.187,0,0,0,606,38.354h0.063a4.19,4.19,0,0,0,3.259-1.638l1.113-1.448a6.266,6.266,0,0,1,4.752-2.045m0-4.222a10.49,10.49,0,0,0-7.914,3.479l0,0h0L606,34.132l-1.268-1.549a0.007,0.007,0,0,1,0,0l0,0A10.594,10.594,0,0,0,596.812,29a11.549,11.549,0,0,0-8.353,3.576,12.515,12.515,0,0,0,0,17.271L604.137,66.2a2.567,2.567,0,0,0,3.728,0l15.678-16.348a12.514,12.514,0,0,0,0-17.273A11.55,11.55,0,0,0,615.187,29h0Z" transform="translate(-585 -29)"/>
</svg>
