<svg xmlns="http://www.w3.org/2000/svg" width="39.967" height="39.937" viewBox="0 0 38.969 38.94">
  <defs>
    <style>
      .cls-1 {
        fill: #b12df9;
        fill-rule: evenodd;
      }
    </style>
  </defs>
  <path id="矩形_23" data-name="矩形 23" class="cls-1" d="M294.821,1267.26l4.331,2.42-2.425-4.32,2.425-4.33-4.331,2.42-4.331-2.42,2.426,4.33-2.426,4.32,4.331-2.42h0Zm23.82,17.83-4.331-2.42,2.426,4.32-2.426,4.33,4.331-2.42,4.331,2.42-2.425-4.33,2.425-4.32-4.331,2.42h0Zm4.331-24.06-4.872,2.72-4.872-2.72,2.728,4.87-2.728,4.86,4.872-2.72,4.872,2.72-2.728-4.86,2.728-4.87h0Zm-13.588,9.22a1.829,1.829,0,0,0-2.653,0l-22.169,22.15a1.83,1.83,0,0,0,0,2.65l4.358,4.36a1.829,1.829,0,0,0,2.653,0l22.169-22.15a1.828,1.828,0,0,0,0-2.65l-4.358-4.36h0Zm-2.084,10.41-3.979-3.97,4.547-4.55,3.979,3.98-4.547,4.54h0Z" transform="translate(-284 -1261.03)"/>
</svg>
