<?xml version="1.0" standalone="no"?><!DOCTYPE svg PUBLIC "-//W3C//DTD SVG 1.1//EN" "http://www.w3.org/Graphics/SVG/1.1/DTD/svg11.dtd"><svg t="1489026839580" class="icon" style="" viewBox="0 0 1024 1024" version="1.1" xmlns="http://www.w3.org/2000/svg" p-id="17624" xmlns:xlink="http://www.w3.org/1999/xlink" width="32" height="32"><defs><style type="text/css"></style></defs><path d="M753.447936 498.97984H539.060224V320.323584c0-112.171008 77.768704-214.380544 189.93664-214.380544s203.103232 90.929152 203.103232 203.10016c0.001024 112.167936-66.484224 189.93664-178.65216 189.93664z m-24.451072-325.336064c-74.778624 0-118.473728 71.898112-118.473728 146.680832v107.193344h142.9248c74.778624 0 110.949376-43.696128 110.949376-118.473728 0-74.78272-60.621824-135.400448-135.400448-135.400448z m-415.603712 754.10432c-112.167936 0-203.10016-90.929152-203.10016-203.10016s66.481152-189.93664 178.649088-189.93664h214.387712v178.656256c0 112.171008-77.769728 214.380544-189.93664 214.380544z m118.473728-321.573888H288.94208c-74.781696 0-110.94528 43.696128-110.94528 118.473728s60.614656 135.400448 135.396352 135.400448c74.778624 0 118.473728-71.902208 118.473728-146.680832V606.174208zM288.94208 498.97984c-112.167936 0-178.649088-77.768704-178.649088-189.93664 0-112.171008 90.932224-203.10016 203.10016-203.10016s189.93664 102.209536 189.93664 214.380544v178.656256H288.94208z m142.9248-178.656256c0-74.781696-43.696128-146.680832-118.473728-146.680832-74.781696 0-135.396352 60.617728-135.396352 135.400448 0 74.778624 36.163584 118.473728 110.94528 118.473728h142.9248V320.323584z m321.581056 214.387712c112.167936 0 178.653184 77.765632 178.653184 189.93664s-90.93632 203.10016-203.103232 203.10016-189.937664-102.209536-189.937664-214.380544V534.711296h214.387712zM610.523136 713.367552c0 74.778624 43.696128 146.680832 118.473728 146.680832s135.400448-60.621824 135.400448-135.400448-36.170752-118.473728-110.949376-118.473728H610.523136v107.193344z" p-id="17625" fill="#ffffff"></path></svg>