<svg id="图层_1" data-name="图层 1" xmlns="http://www.w3.org/2000/svg" viewBox="0 0 30 16"><defs><style>.cls-1{fill:#f6b85a;}</style></defs><title>12.content_icon_attention_default</title><path class="cls-1" d="M74.3,101.63a3.51,3.51,0,0,0-.65.06,1.62,1.62,0,1,1-2,1.57,1.6,1.6,0,0,1,.07-0.44,3.46,3.46,0,0,0-.89,2.3,3.51,3.51,0,1,0,3.51-3.5m0,9.35a5.86,5.86,0,1,1,5.88-5.86A5.87,5.87,0,0,1,74.3,111m0-14.06c-8.28,0-15,8-15,8s6.72,8,15,8,15-8,15-8-6.72-8-15-8" transform="translate(-59.31 -96.93)"/></svg>