<svg id="图层_1" data-name="图层 1" xmlns="http://www.w3.org/2000/svg" viewBox="0 0 30.72 27.21"><defs><style>.cls-1{fill:#fff;}</style></defs><title>18shop_icon_enter_default</title><path class="cls-1" d="M30.13,15.51L15,1.7-0.13,15.47a0.7,0.7,0,0,0,0,1,0.75,0.75,0,0,0,1,0L15,3.65l14.12,12.9a0.75,0.75,0,0,0,1,0,0.7,0.7,0,0,0,0-1h0Z" transform="translate(0.36 -1.7)"/><path class="cls-1" d="M25.51,15.79a0.72,0.72,0,0,0-.73.72v11H18.91V19.85H11.09v7.63H5.22v-11a0.73,0.73,0,0,0-1.47,0v12.4h8.8V21.28h4.89v7.63h8.8V16.51a0.72,0.72,0,0,0-.73-0.72h0Z" transform="translate(0.36 -1.7)"/><path class="cls-1" d="M20.38,5.54h4.4V9.35a0.73,0.73,0,0,0,1.47,0V4.11H20.38a0.72,0.72,0,1,0,0,1.43h0Z" transform="translate(0.36 -1.7)"/></svg>