<svg id="图层_1" data-name="图层 1" xmlns="http://www.w3.org/2000/svg" viewBox="0 0 30 25.71"><defs><style>.cls-1{fill:#fff;}</style></defs><title>19shop_icon_favorable_default</title><path class="cls-1" d="M-1,11.07A2.71,2.71,0,0,1-.59,9.48,2,2,0,0,1,1,9H4.55V29.58L1,29.54a2.09,2.09,0,0,1-1.53-.37A2.13,2.13,0,0,1-1,27.61V21.69A1.3,1.3,0,0,1-.81,21,0.83,0.83,0,0,1-.23,20.7a1.24,1.24,0,0,0,.44-0.12,2.13,2.13,0,0,0,.56-0.4,2.22,2.22,0,0,0,.48-0.7,2.47,2.47,0,0,0,.2-1A2.07,2.07,0,0,0,1,17a1.82,1.82,0,0,0-1.07-.61,1.29,1.29,0,0,1-.64-0.27A0.85,0.85,0,0,1-1,15.43V11.07h0ZM3.19,7.16V6.09a2.27,2.27,0,0,1,.62-1.52,1.8,1.8,0,0,1,1.35-.7H8.29V7.16H3.19Zm24.89,8.92a0.71,0.71,0,0,0-.46.36,1.33,1.33,0,0,0-.14.59,1.58,1.58,0,0,0,.14.64,0.81,0.81,0,0,0,.46.43,1,1,0,0,1,.51.49,1.89,1.89,0,0,1,.2.78,2.21,2.21,0,0,1-.1.78,1,1,0,0,1-.36.54,1.36,1.36,0,0,0-.8,1.11,1.64,1.64,0,0,0,.8,1.23,1.2,1.2,0,0,1,.3.45,1.76,1.76,0,0,1,.14.67,1,1,0,0,1-.16.57A0.62,0.62,0,0,1,28,25H25.87a0.34,0.34,0,0,1-.25,0,0.16,0.16,0,0,1,.05-0.14l0.2-.23a1.19,1.19,0,0,0,.21-0.29,1.26,1.26,0,0,0,0-1,1.66,1.66,0,0,0-.69-0.7,0.92,0.92,0,0,1-.46-0.52,1.61,1.61,0,0,1-.12-0.72,1.78,1.78,0,0,1,.14-0.66,0.8,0.8,0,0,1,.36-0.42,0.86,0.86,0,0,0,.48-0.45,1.51,1.51,0,0,0,.16-0.7,2,2,0,0,0-.12-0.68A0.75,0.75,0,0,0,25.46,18a1.22,1.22,0,0,1-.5-0.5,1.44,1.44,0,0,1-.18-0.73,2,2,0,0,1,.16-0.8,1.4,1.4,0,0,1,.52-0.64,1.21,1.21,0,0,0,.41-0.45,1.48,1.48,0,0,0,.19-0.62,1.4,1.4,0,0,0-.12-0.64,1.15,1.15,0,0,0-.51-0.51,1.26,1.26,0,0,1-.58-0.6,1.93,1.93,0,0,1-.18-0.8,1.78,1.78,0,0,1,.18-0.78,1.43,1.43,0,0,1,.5-0.58,1.25,1.25,0,0,0,.75-1A3,3,0,0,0,26,8.19a1.69,1.69,0,0,0-.48-0.74,1.32,1.32,0,0,0-.93-0.33H10.74V3.87H27.92a0.64,0.64,0,0,1,.47.21,1,1,0,0,1,.27.5,1.09,1.09,0,0,1,0,.6,1,1,0,0,1-.38.52,1.79,1.79,0,0,0-.42.53,1.68,1.68,0,0,0-.21.68,2,2,0,0,0,.1.7,0.86,0.86,0,0,0,.44.51,1.55,1.55,0,0,1,.66.68,1.85,1.85,0,0,1,.23.86,1.54,1.54,0,0,1-.22.8,1.21,1.21,0,0,1-.62.53,1.27,1.27,0,0,0-.65.47,1.39,1.39,0,0,0-.07,1.4,1.56,1.56,0,0,0,.59.6,1.39,1.39,0,0,1,.59.66,1.85,1.85,0,0,1,.16.82,1.88,1.88,0,0,1-.2.76,0.68,0.68,0,0,1-.54.39h0Zm-5.22-.62a1.34,1.34,0,0,0-.75.47A1.24,1.24,0,0,0,22,17.41a1.28,1.28,0,0,0,.67.53,1.29,1.29,0,0,1,.6.49,1.48,1.48,0,0,1,.22.7,1.4,1.4,0,0,1-.14.7,1,1,0,0,1-.48.49,1.54,1.54,0,0,0-1,1.2,1.16,1.16,0,0,0,.76,1.11,1.3,1.3,0,0,1,.58.51,1.53,1.53,0,0,1,.24.74,1.29,1.29,0,0,1-.15.69,0.88,0.88,0,0,1-.52.44,1.36,1.36,0,0,0-.75.45,1.24,1.24,0,0,0-.27.69,1.21,1.21,0,0,0,.2.74,1.67,1.67,0,0,0,.7.62,1,1,0,0,1,.46.51,1.4,1.4,0,0,1,.11.68,1.35,1.35,0,0,1-.23.59,0.56,0.56,0,0,1-.51.27H6.92V9H22.73a0.58,0.58,0,0,1,.51.27,1.23,1.23,0,0,1,.2.6,1.26,1.26,0,0,1-.15.66,0.86,0.86,0,0,1-.52.45,1.24,1.24,0,0,0-.59.41,1.28,1.28,0,0,0-.26.64,1.09,1.09,0,0,0,.16.68,1.21,1.21,0,0,0,.69.49,1.37,1.37,0,0,1,.58.5,1.35,1.35,0,0,1,.24.68,1.2,1.2,0,0,1-.16.67,1,1,0,0,1-.59.43h0ZM17.1,18.23a2.37,2.37,0,0,1-.42,0c-0.14,0-.17-0.12-0.1-0.25s0.16-.25.39-0.57,0.48-.68.76-1l0.79-1c0.24-.33.39-0.54,0.44-0.62a0.63,0.63,0,0,0-.24-0.78,2,2,0,0,0-.32-0.25,2.24,2.24,0,0,0-.44-0.24,0.59,0.59,0,0,0-.47,0,1.35,1.35,0,0,0-.34.37l-0.41.59-0.68,1c-0.24.36-.46,0.68-0.66,1a4.73,4.73,0,0,0-.34.52,0.25,0.25,0,0,1-.3.12,0.38,0.38,0,0,1-.3-0.21,5.59,5.59,0,0,0-.37-0.48c-0.22-.25-0.45-0.55-0.68-0.88s-0.47-.63-0.7-0.92l-0.47-.6q-0.36-.7-0.76-0.45a3.78,3.78,0,0,0-.51.35,3.3,3.3,0,0,1-.42.32,0.49,0.49,0,0,0-.12.74c0.45,0.55.86,1.05,1.21,1.52l0.85,1.11L13,18c0.06,0.11,0,.16-0.16.16H12.32l-0.58,0a3.86,3.86,0,0,1-.71,0,0.78,0.78,0,0,0-.52.16,0.34,0.34,0,0,0-.12.41,2.32,2.32,0,0,1,0,.49v0.5a0.19,0.19,0,0,0,.12.22l0.28,0h2.33c0.32,0,.48.07,0.48,0.21V21c0,0.14,0,.21-0.08.21H10.87a0.27,0.27,0,0,0-.32.12,1.94,1.94,0,0,0-.12.37,0.9,0.9,0,0,0,0,.39,1.35,1.35,0,0,1,0,.31,0.47,0.47,0,0,0,.52.54H13.4a0.29,0.29,0,0,1,.24.06,0.58,0.58,0,0,1,0,.27,3.37,3.37,0,0,1,0,.74c0,0.36,0,.59,0,0.71a0.43,0.43,0,0,0,.52.45h1.29c0.21,0,.32-0.07.32-0.21V23.29a0.35,0.35,0,0,1,.36-0.42h0.36c0.19,0,.4,0,0.62,0l0.66,0h0.52c0.37,0,.57-0.14.57-0.41V21.52a0.34,0.34,0,0,0-.4-0.37H16.17c-0.26.06-.41,0-0.41-0.16a2.63,2.63,0,0,0,0-.31,3.17,3.17,0,0,1,0-.35,0.26,0.26,0,0,1,.14-0.24,0.58,0.58,0,0,1,.3-0.09h2.37c0.26,0,.4-0.09.4-0.29v-1a0.49,0.49,0,0,0-.14-0.32,0.42,0.42,0,0,0-.34-0.16H17.1Z" transform="translate(0.96 -3.87)"/></svg>