<svg id="图层_1" data-name="图层 1" xmlns="http://www.w3.org/2000/svg" viewBox="0 0 30 27"><defs><style>.cls-1{fill:#fff;}</style></defs><title>20shop_icon_attention_default</title><path class="cls-1" d="M19.79,5.9A5.29,5.29,0,0,1,23.6,7.53a5.86,5.86,0,0,1,0,8.1L13.23,26.39,2.85,15.62a5.86,5.86,0,0,1,0-8.09A5.3,5.3,0,0,1,6.66,5.9a4.53,4.53,0,0,1,3.42,1.55l0.82,1a3,3,0,0,0,2.32,1.09h0A3,3,0,0,0,15.6,8.38l0.8-1A4.49,4.49,0,0,1,19.79,5.9m0-3a7.51,7.51,0,0,0-5.65,2.47h0L13.23,6.55l-0.91-1.1h0A7.59,7.59,0,0,0,6.66,2.9a8.27,8.27,0,0,0-6,2.54,8.86,8.86,0,0,0,0,12.27L11.9,29.33a1.84,1.84,0,0,0,2.66,0l11.2-11.62a8.86,8.86,0,0,0,0-12.27,8.27,8.27,0,0,0-6-2.54h0Z" transform="translate(1.77 -2.9)"/></svg>