<svg xmlns="http://www.w3.org/2000/svg" width="24" height="32" viewBox="0 0 24 32">
  <defs>
    <style>
      .cls-1 {
        fill: #575e7f;
        fill-rule: evenodd;
      }
    </style>
  </defs>
  <path id="矩形_5" data-name="矩形 5" class="cls-1" d="M171.834,346.971V341.72A8.715,8.715,0,0,0,163.119,333c-0.059,0-.1,0-0.162,0s-0.11,0-.159,0a8.715,8.715,0,0,0-8.714,8.717v5.25H151V365h24V346.971h-3.166Zm-6.11,14.723h-5.443l1.333-5.828a2.721,2.721,0,1,1,2.767.006Zm1.75-14.723h-9.03v-5.25a4.36,4.36,0,0,1,4.354-4.355l0.212,0,0.109,0a4.36,4.36,0,0,1,4.355,4.354v5.251Z" transform="translate(-151 -333)"/>
</svg>
