<?xml version="1.0" encoding="utf-8"?>
<!-- Generator: Adobe Illustrator 19.0.0, SVG Export Plug-In . SVG Version: 6.00 Build 0)  -->
<svg version="1.1" id="图层_1" xmlns="http://www.w3.org/2000/svg" xmlns:xlink="http://www.w3.org/1999/xlink" x="0px" y="0px"
	 viewBox="0 0 70 70" style="enable-background:new 0 0 70 70;" xml:space="preserve">
<style type="text/css">
	.st0{fill:none;stroke:#000000;stroke-width:6;stroke-miterlimit:10;}
	.st1{fill:#FCBCB5;}
	.st2{fill:none;stroke:#FCBCB5;stroke-width:6;stroke-miterlimit:10;}
	.st3{fill:none;stroke:#000000;stroke-width:2;stroke-miterlimit:10;}
</style>
<path id="XMLID_1_" class="st0" d="M281.4,97.4"/>
<g id="新建符号_7">
	<path id="XMLID_20_" class="st1" d="M51.1,45.5l0.2-0.2c0.3-0.3,0.9-0.3,1.3,0l3.1,3c0.3,0.3,0.3,0.9,0,1.2l-0.2,0.2
		c-0.3,0.3-0.9,0.3-1.3,0l-3.1-3C50.8,46.4,50.8,45.8,51.1,45.5z"/>
	<path id="XMLID_19_" class="st1" d="M57.6,30.8v-0.2c0-0.5,0.4-0.9,0.9-0.9h4.4c0.5,0,0.9,0.4,0.9,0.9v0.2c0,0.5-0.4,0.9-0.9,0.9
		h-4.4C58,31.6,57.6,31.2,57.6,30.8z"/>
	<path id="XMLID_18_" class="st1" d="M51.3,16l-0.2-0.2c-0.3-0.3-0.3-0.9,0-1.2l3.1-3c0.3-0.3,0.9-0.3,1.3,0l0.2,0.2
		c0.3,0.3,0.3,0.9,0,1.2l-3.1,3C52.2,16.3,51.6,16.3,51.3,16z"/>
	<g id="XMLID_14_">
		<path id="XMLID_16_" class="st2" d="M44.3,50.1l0,7.5c0,0.6-0.4,1.1-1,1.1H26.7"/>
		<path id="XMLID_15_" class="st2" d="M37.6,12.4c7.1,0.9,12.7,7.3,12.7,15c0,10.5-6,9.3-6,22.7"/>
	</g>
	<path id="XMLID_13_" class="st3" d="M42,55.4H27.8c-0.6,0-1-0.4-1-1v-5.9c0-0.6,0.4-1,1-1H42c0.6,0,1,0.4,1,1v5.9
		C43,54.9,42.5,55.4,42,55.4z"/>
	<path id="XMLID_12_" class="st3" d="M49,26.1c0,9.8-6,8.7-6,21.3h-8.3h-7.7c0-12.4-6.8-11.4-6.8-21.3c0-7.8,6.4-14.2,14.4-14.2
		S49,18.3,49,26.1z"/>
	<path id="XMLID_11_" class="st3" d="M35.6,47.4h-2.1c-0.6,0-1-0.4-1-1l-1-11.1l-3.1-4.6c0-0.5,0.5-1,1-1h10.3c0.6,0,1,0.4,1,1
		l-3.1,4.6l-1,11.1C36.6,47,36.1,47.4,35.6,47.4z"/>
	<path id="XMLID_10_" d="M19.2,15.8L19,16c-0.3,0.3-0.9,0.3-1.3,0l-3.1-3c-0.3-0.3-0.3-0.9,0-1.2l0.2-0.2c0.3-0.3,0.9-0.3,1.3,0
		l3.1,3C19.6,14.9,19.6,15.5,19.2,15.8z"/>
	<path id="XMLID_9_" d="M12.7,30.5v0.2c0,0.5-0.4,0.9-0.9,0.9H7.4c-0.5,0-0.9-0.4-0.9-0.9v-0.2c0-0.5,0.4-0.9,0.9-0.9h4.4
		C12.3,29.7,12.7,30.1,12.7,30.5z"/>
	<path id="XMLID_8_" d="M19,45.3l0.2,0.2c0.3,0.3,0.3,0.9,0,1.2l-3.1,3c-0.3,0.3-0.9,0.3-1.3,0l-0.2-0.2c-0.3-0.3-0.3-0.9,0-1.2
		l3.1-3C18.1,45,18.7,45,19,45.3z"/>
	<path id="XMLID_7_" d="M49.9,45.5l0.2-0.2c0.3-0.3,0.9-0.3,1.3,0l3.1,3c0.3,0.3,0.3,0.9,0,1.2l-0.2,0.2c-0.3,0.3-0.9,0.3-1.3,0
		l-3.1-3C49.5,46.4,49.5,45.9,49.9,45.5z"/>
	<path id="XMLID_6_" d="M56.4,30.8v-0.2c0-0.5,0.4-0.9,0.9-0.9h4.4c0.5,0,0.9,0.4,0.9,0.9v0.2c0,0.5-0.4,0.9-0.9,0.9h-4.4
		C56.8,31.6,56.4,31.3,56.4,30.8z"/>
	<path id="XMLID_5_" d="M50.1,16l-0.2-0.2c-0.3-0.3-0.3-0.9,0-1.2l3.1-3c0.3-0.3,0.9-0.3,1.3,0l0.2,0.2c0.3,0.3,0.3,0.9,0,1.2
		l-3.1,3C51,16.3,50.4,16.3,50.1,16z"/>
	<path id="XMLID_4_" d="M38.1,52.4H27.7c-0.5,0-1-0.4-1-1v0c0-0.5,0.4-1,1-1h10.4c0.5,0,1,0.4,1,1v0C39,52,38.6,52.4,38.1,52.4z"/>
</g>
</svg>
