<?xml version="1.0" encoding="utf-8"?>
<!-- Generator: Adobe Illustrator 19.0.0, SVG Export Plug-In . SVG Version: 6.00 Build 0)  -->
<svg version="1.1" id="图层_1" xmlns="http://www.w3.org/2000/svg" xmlns:xlink="http://www.w3.org/1999/xlink" x="0px" y="0px"
	 viewBox="0 0 70 70" style="enable-background:new 0 0 70 70;" xml:space="preserve">
<style type="text/css">
	.st0{fill:none;stroke:#000000;stroke-width:6;stroke-miterlimit:10;}
	.st1{fill:none;stroke:#FCBCB5;stroke-width:6;stroke-miterlimit:10;}
	.st2{fill:none;stroke:#000000;stroke-width:2;stroke-miterlimit:10;}
</style>
<path id="XMLID_1_" class="st0" d="M281.4,97.4"/>
<g id="新建符号_1">
	<path id="XMLID_10_" class="st1" d="M29.1,46.5l0.4,0.2l6.6,3.8l7.5,4.3l1,0.6c0.8,0.4,1.6-0.1,1.4-0.9l-4-9.8
		c-0.1-0.3,0-0.7,0.3-0.9c3.1-2.3,5.7-5.6,8.2-9.8c5.7-9.7,1.4-22.8,0.9-24.3"/>
	<path id="XMLID_9_" d="M49.8,23.4l-13.2-7.6c-0.5-0.3-0.6-0.9-0.4-1.3l0,0c0.3-0.5,0.9-0.6,1.3-0.4l13.2,7.6
		c0.5,0.3,0.6,0.9,0.4,1.3l0,0C50.8,23.5,50.2,23.7,49.8,23.4z"/>
	<g id="XMLID_5_">
		<path id="XMLID_8_" d="M28.4,48.5L26,52.8c-0.3,0.5-0.9,0.6-1.3,0.4l0,0c-0.5-0.3-0.6-0.9-0.4-1.3l2.5-4.2
			c0.3-0.5,0.9-0.6,1.3-0.4l0,0C28.5,47.5,28.7,48.1,28.4,48.5z"/>
		<path id="XMLID_7_" d="M33.7,51.6L29.5,59c-0.3,0.5-0.9,0.6-1.3,0.4l0,0c-0.5-0.3-0.6-0.9-0.4-1.3l4.3-7.4
			c0.3-0.5,0.9-0.6,1.3-0.4l0,0C33.9,50.6,34,51.1,33.7,51.6z"/>
		<path id="XMLID_6_" d="M23.1,45.5l-4.3,7.4c-0.3,0.5-0.9,0.6-1.3,0.4l0,0c-0.5-0.3-0.6-0.9-0.4-1.3l4.3-7.4
			c0.3-0.5,0.9-0.6,1.3-0.4l0,0C23.2,44.4,23.4,45,23.1,45.5z"/>
	</g>
	<path id="XMLID_4_" class="st2" d="M48.2,32.5c-2.3,3.9-4.6,7-7.5,9.2c-0.2,0.2-0.3,0.5-0.3,0.8l3.7,9.1c0.2,0.7-0.6,1.2-1.3,0.8
		l-0.9-0.5l-6.9-4l-6.1-3.6l-7-4.1l-6.3-3.7l-0.5-0.3c-0.7-0.4-0.6-1.4,0.1-1.5l9.7-1c0.3-0.1,0.6-0.3,0.6-0.6
		c0.4-3.6,1.7-7.5,3.9-11.3c5.6-9.6,19.5-12,19.5-12S53.8,22.9,48.2,32.5z"/>
</g>
</svg>
