<?xml version="1.0" encoding="utf-8"?>
<!-- Generator: Adobe Illustrator 19.0.0, SVG Export Plug-In . SVG Version: 6.00 Build 0)  -->
<svg version="1.1" id="图层_1" xmlns="http://www.w3.org/2000/svg" xmlns:xlink="http://www.w3.org/1999/xlink" x="0px" y="0px"
	 viewBox="0 0 70 70" style="enable-background:new 0 0 70 70;" xml:space="preserve">
<style type="text/css">
	.st0{fill:none;stroke:#000000;stroke-width:6;stroke-miterlimit:10;}
	.st1{fill:none;stroke:#FCBCB5;stroke-width:6;stroke-miterlimit:10;}
	.st2{fill:none;stroke:#000000;stroke-width:2;stroke-miterlimit:10;}
</style>
<path id="XMLID_1_" class="st0" d="M281.4,97.4"/>
<g id="新建符号_6">
	<path id="XMLID_9_" class="st1" d="M32.7,9.9C46.1,9.9,57,20.8,57,34.2S46.1,58.5,32.7,58.5c-3.4,0-6.6-0.7-9.5-1.9
		c-0.9-0.4-6.2,3.5-7.1,3"/>
	<g id="XMLID_5_">
		<path id="XMLID_8_" d="M42.9,28.2H23.4c-0.5,0-1-0.4-1-1v0c0-0.5,0.4-1,1-1h19.4c0.5,0,1,0.4,1,1v0C43.8,27.8,43.4,28.2,42.9,28.2
			z"/>
		<path id="XMLID_7_" d="M42.9,34.2H23.4c-0.5,0-1-0.4-1-1l0,0c0-0.5,0.4-1,1-1h19.4c0.5,0,1,0.4,1,1l0,0
			C43.8,33.8,43.4,34.2,42.9,34.2z"/>
		<path id="XMLID_6_" d="M42.9,40.2H23.4c-0.5,0-1-0.4-1-1v0c0-0.5,0.4-1,1-1h19.4c0.5,0,1,0.4,1,1v0C43.8,39.8,43.4,40.2,42.9,40.2
			z"/>
	</g>
	<path id="XMLID_4_" class="st2" d="M56.1,33.6c0,12.7-10.3,23-23,23c-3.2,0-6.2-0.6-9-1.8c-0.9-0.4-5.9,3.3-6.7,2.9
		c-1-0.6,2.1-5.4,1.2-6.2c-5.2-4.2-8.5-10.6-8.5-17.8c0-12.7,10.3-23,23-23S56.1,20.9,56.1,33.6z"/>
</g>
</svg>
