<?xml version="1.0" encoding="utf-8"?>
<!-- Generator: Adobe Illustrator 19.0.0, SVG Export Plug-In . SVG Version: 6.00 Build 0)  -->
<svg version="1.1" id="图层_1" xmlns="http://www.w3.org/2000/svg" xmlns:xlink="http://www.w3.org/1999/xlink" x="0px" y="0px"
	 viewBox="0 0 70 70" style="enable-background:new 0 0 70 70;" xml:space="preserve">
<style type="text/css">
	.st0{fill:none;stroke:#000000;stroke-width:6;stroke-miterlimit:10;}
	.st1{fill:none;stroke:#FCBCB5;stroke-width:6;stroke-miterlimit:10;}
	.st2{fill-rule:evenodd;clip-rule:evenodd;fill:none;stroke:#000000;stroke-width:2;stroke-miterlimit:10;}
	.st3{fill:none;stroke:#000000;stroke-width:2;stroke-miterlimit:10;}
</style>
<path id="XMLID_1_" class="st0" d="M281.4,97.4"/>
<g id="_x31_">
	<path id="XMLID_7_" class="st1" d="M30.2,59.5c0,0,39.3-21,25.5-41.5c-11-12.9-27.8-0.1-27.8-0.1"/>
	<path id="XMLID_6_" class="st2" d="M52.4,21.2c11,18.7-20.7,37.1-20.7,37.1S1.1,39.8,10.5,21.6c0.3-0.5,0.7-1,1.1-1.4
		c8.5-9.3,20.1,0.7,20.1,0.7s11.2-10.1,20.1-0.4C52,20.7,52.2,20.9,52.4,21.2z"/>
	<path id="XMLID_5_" class="st3" d="M17.3,33.5l0.5,1.4c0.5,1.2,1.2,2.3,2.2,3.2l0.9,0.8"/>
	<line id="XMLID_4_" class="st3" x1="16.8" y1="31.6" x2="16.9" y2="32.7"/>
</g>
</svg>
