<?xml version="1.0" encoding="utf-8"?>
<!-- Generator: Adobe Illustrator 19.0.0, SVG Export Plug-In . SVG Version: 6.00 Build 0)  -->
<svg version="1.1" id="图层_1" xmlns="http://www.w3.org/2000/svg" xmlns:xlink="http://www.w3.org/1999/xlink" x="0px" y="0px"
	 viewBox="0 0 70 70" style="enable-background:new 0 0 70 70;" xml:space="preserve">
<style type="text/css">
	.st0{fill:none;stroke:#000000;stroke-width:6;stroke-miterlimit:10;}
	.st1{fill-rule:evenodd;clip-rule:evenodd;fill:none;stroke:#000000;stroke-width:2;stroke-miterlimit:10;}
	.st2{fill:none;stroke:#FCBCB5;stroke-width:6;stroke-miterlimit:10;}
</style>
<path id="XMLID_1_" class="st0" d="M281.4,97.4"/>
<g id="新建符号_2">
	<circle id="XMLID_9_" class="st1" cx="32.2" cy="33.3" r="7.7"/>
	<path id="XMLID_8_" d="M20.3,18.5L17.8,16c-0.4-0.4-0.4-1,0-1.4l0,0c0.4-0.4,1-0.4,1.4,0l2.5,2.5c0.4,0.4,0.4,1,0,1.4v0
		C21.3,18.9,20.6,18.9,20.3,18.5z"/>
	<path id="XMLID_7_" d="M15.4,21.3l-4.8-3.6c-0.4-0.3-0.5-1-0.2-1.4l0,0c0.3-0.4,1-0.5,1.4-0.2l4.8,3.6c0.4,0.3,0.5,1,0.2,1.4v0
		C16.5,21.6,15.9,21.7,15.4,21.3z"/>
	<path id="XMLID_6_" class="st2" d="M29.5,51L48,60.8c0.9,0.5,2-0.3,1.8-1.4L48,43c-0.1-0.4,0.1-0.9,0.4-1.2l11.1-12.4
		c0.8-0.8,0.3-2.1-0.7-2.3L43,24.5c-0.4-0.1-0.8-0.3-1-0.7L34.7,8"/>
	<g id="XMLID_4_">
		<path id="XMLID_5_" class="st1" d="M33.2,10.9l6.6,13.4c0.2,0.3,0.5,0.6,0.8,0.6L55.2,27c0.9,0.1,1.3,1.3,0.6,1.9L45.2,39.3
			c-0.3,0.3-0.4,0.6-0.3,1L47.4,55c0.2,0.9-0.8,1.6-1.6,1.2l-13.1-6.9c-0.3-0.2-0.7-0.2-1,0l-13.1,6.9c-0.8,0.4-1.8-0.3-1.6-1.2
			l2.5-14.7c0.1-0.4-0.1-0.7-0.3-1L8.5,28.9c-0.7-0.6-0.3-1.8,0.6-1.9l14.7-2.1c0.4-0.1,0.7-0.3,0.8-0.6l6.6-13.4
			C31.6,10.1,32.8,10.1,33.2,10.9z"/>
	</g>
</g>
</svg>
