<?xml version="1.0" encoding="utf-8"?>
<!-- Generator: Adobe Illustrator 19.0.0, SVG Export Plug-In . SVG Version: 6.00 Build 0)  -->
<svg version="1.1" id="图层_1" xmlns="http://www.w3.org/2000/svg" xmlns:xlink="http://www.w3.org/1999/xlink" x="0px" y="0px"
	 viewBox="0 0 70 70" style="enable-background:new 0 0 70 70;" xml:space="preserve">
<style type="text/css">
	.st0{fill:none;stroke:#000000;stroke-width:6;stroke-miterlimit:10;}
	.st1{fill:none;stroke:#FCBCB5;stroke-width:6;stroke-miterlimit:10;}
	.st2{fill:none;stroke:#000000;stroke-width:2;stroke-miterlimit:10;}
</style>
<path id="XMLID_1_" class="st0" d="M281.4,97.4"/>
<g id="新建符号_5">
	<path id="XMLID_15_" class="st1" d="M32.8,14.7h22.3c0.5,0,0.9,0.4,0.9,0.9v42.1c0,0.5-0.4,0.9-0.9,0.9H22.4
		c-0.5,0-0.9-0.4-0.9-0.9"/>
	<path id="XMLID_14_" d="M49.3,24.6H38.9c-0.5,0-1-0.4-1-1v0c0-0.5,0.4-1,1-1h10.4c0.5,0,1,0.4,1,1v0C50.2,24.1,49.8,24.6,49.3,24.6
		z"/>
	<path id="XMLID_13_" d="M49.3,30.6H29.8c-0.5,0-1-0.4-1-1v0c0-0.5,0.4-1,1-1h19.4c0.5,0,1,0.4,1,1v0C50.2,30.1,49.8,30.6,49.3,30.6
		z"/>
	<path id="XMLID_12_" d="M49.3,36.6H29.8c-0.5,0-1-0.4-1-1l0,0c0-0.5,0.4-1,1-1h19.4c0.5,0,1,0.4,1,1l0,0
		C50.2,36.2,49.8,36.6,49.3,36.6z"/>
	<path id="XMLID_11_" d="M49.3,42.6H29.8c-0.5,0-1-0.4-1-1l0,0c0-0.5,0.4-1,1-1h19.4c0.5,0,1,0.4,1,1l0,0
		C50.2,42.2,49.8,42.6,49.3,42.6z"/>
	<path id="XMLID_10_" d="M49.3,48.7H29.8c-0.5,0-1-0.4-1-1v0c0-0.5,0.4-1,1-1h19.4c0.5,0,1,0.4,1,1v0C50.2,48.2,49.8,48.7,49.3,48.7
		z"/>
	<path id="XMLID_9_" class="st2" d="M29.7,13.7H52c0.5,0,0.9,0.4,0.9,0.9v42.1c0,0.5-0.4,0.9-0.9,0.9H19.3c-0.5,0-0.9-0.4-0.9-0.9
		V27.1"/>
	<g id="XMLID_4_">
		<path id="XMLID_8_" class="st2" d="M17.8,25.6c0-2.4,0-3.6,4.3-3.6s4.3,1.2,4.3,3.6"/>
		<ellipse id="XMLID_7_" class="st2" cx="22.1" cy="17.4" rx="2.3" ry="2.3"/>
		<ellipse id="XMLID_6_" class="st2" cx="22.1" cy="18.4" rx="8.8" ry="8.9"/>
		<path id="XMLID_5_" d="M16.4,25.5l-3.9,3.9c-0.4,0.4-0.9,0.4-1.3,0h0c-0.4-0.4-0.4-0.9,0-1.3l3.9-3.9c0.4-0.4,0.9-0.4,1.3,0l0,0
			C16.7,24.5,16.7,25.1,16.4,25.5z"/>
	</g>
</g>
</svg>
