<?xml version="1.0" encoding="utf-8"?>
<!-- Generator: Adobe Illustrator 19.0.0, SVG Export Plug-In . SVG Version: 6.00 Build 0)  -->
<svg version="1.1" id="图层_1" xmlns="http://www.w3.org/2000/svg" xmlns:xlink="http://www.w3.org/1999/xlink" x="0px" y="0px"
	 viewBox="0 0 70 70" style="enable-background:new 0 0 70 70;" xml:space="preserve">
<style type="text/css">
	.st0{fill:none;stroke:#000000;stroke-width:6;stroke-miterlimit:10;}
	.st1{fill:none;stroke:#FCBCB5;stroke-width:6;stroke-miterlimit:10;}
	.st2{fill:none;stroke:#000000;stroke-width:2;stroke-miterlimit:10;}
</style>
<path id="XMLID_1_" class="st0" d="M281.4,97.4"/>
<g id="新建符号">
	<g id="XMLID_8_">
		<path id="XMLID_10_" class="st1" d="M37.8,17l10.7-2.5c0.6-0.1,1.2,0.1,1.4,0.5l0,7"/>
		<path id="XMLID_9_" class="st1" d="M54.1,26.5h2.2c0.7,0,1.3,0.5,1.3,1v27c0,0.6-0.6,1-1.3,1H9.6"/>
	</g>
	<path id="XMLID_7_" class="st2" d="M9.8,24c-0.2-0.4,0.1-0.9,0.5-1l38.3-11.2c0.5-0.1,1,0.1,1.1,0.5l0,9.4"/>
	<path id="XMLID_6_" class="st2" d="M54.7,51.7h-44c-0.6,0-1-0.4-1-1V24.5c0-0.6,0.4-1,1-1h44c0.6,0,1,0.4,1,1v26.3
		C55.7,51.3,55.3,51.7,54.7,51.7z"/>
	<path id="XMLID_5_" class="st2" d="M55.8,44.3h-4c-3.6,0-6.4-2.9-6.4-6.4v0c0-3.6,2.9-6.4,6.4-6.4h4"/>
	<path id="XMLID_4_" d="M52.6,39.1L52.6,39.1c-0.7,0-1.2-0.5-1.2-1.2v0c0-0.7,0.5-1.2,1.2-1.2h0c0.7,0,1.2,0.5,1.2,1.2v0
		C53.8,38.6,53.3,39.1,52.6,39.1z"/>
</g>
</svg>
