<svg xmlns="http://www.w3.org/2000/svg" width="20" height="27" viewBox="0 0 20 27">
  <defs>
    <style>
      .cls-1 {
        fill: #575e7f;
        fill-rule: evenodd;
      }
    </style>
  </defs>
  <path id="矩形_5" data-name="矩形 5" class="cls-1" d="M742.361,494.788v-4.431A7.308,7.308,0,0,0,735.1,483c-0.05,0-.086,0-0.135,0l-0.134,0a7.308,7.308,0,0,0-7.261,7.354v4.43H725V510h20V494.788h-2.639Zm-5.091,12.423h-4.535l1.11-4.918a2.268,2.268,0,1,1,2.306,0Zm1.458-12.423H731.2v-4.43a3.656,3.656,0,0,1,3.628-3.674l0.178,0,0.091,0a3.656,3.656,0,0,1,3.628,3.674v4.431Z" transform="translate(-725 -483)"/>
</svg>
