<?xml version="1.0" encoding="utf-8"?>
<!-- Generator: Adobe Illustrator 19.2.1, SVG Export Plug-In . SVG Version: 6.00 Build 0)  -->
<svg version="1.1" id="图层_1" xmlns="http://www.w3.org/2000/svg" xmlns:xlink="http://www.w3.org/1999/xlink" x="0px" y="0px"
	 viewBox="0 0 20 20" style="enable-background:new 0 0 20 20;" xml:space="preserve">
<style type="text/css">
	.st0{fill-rule:evenodd;clip-rule:evenodd;fill:#FF6C60;}
</style>
<g>
	<path class="st0" d="M10,4C4,4,0,10,0,10s4,6,10,6c6,0,10-6,10-6S16,4,10,4L10,4L10,4z M10,14c-2.2,0-4-1.8-4-4c0-2.2,1.8-4,4-4
		c2.2,0,4,1.8,4,4C14,12.2,12.2,14,10,14L10,14L10,14z M8,10c0,0.5,0.2,1,0.6,1.4C9,11.8,9.5,12,10,12c0.5,0,1-0.2,1.4-0.6
		C11.8,11,12,10.5,12,10c0-0.5-0.2-1-0.6-1.4C11,8.2,10.5,8,10,8C9.5,8,9,8.2,8.6,8.6C8.2,9,8,9.5,8,10L8,10L8,10z"/>
</g>
</svg>
