<?xml version="1.0" encoding="utf-8"?>
<!-- Generator: Adobe Illustrator 19.2.1, SVG Export Plug-In . SVG Version: 6.00 Build 0)  -->
<svg version="1.1" id="图层_1" xmlns="http://www.w3.org/2000/svg" xmlns:xlink="http://www.w3.org/1999/xlink" x="0px" y="0px"
	 viewBox="0 0 20 20" style="enable-background:new 0 0 20 20;" xml:space="preserve">
<style type="text/css">
	.st0{fill-rule:evenodd;clip-rule:evenodd;fill:#FFFFFF;}
</style>
<g>
	<path class="st0" d="M10,4.6c-6,0-10,6-10,6s4,6,10,6c6,0,10-6,10-6S16,4.6,10,4.6L10,4.6L10,4.6z M10,14.6c-2.2,0-4-1.8-4-4
		c0-2.2,1.8-4,4-4c2.2,0,4,1.8,4,4C14,12.8,12.2,14.6,10,14.6L10,14.6L10,14.6z M8,10.6c0,0.5,0.2,1,0.6,1.4
		c0.4,0.4,0.9,0.6,1.4,0.6c0.5,0,1-0.2,1.4-0.6c0.4-0.4,0.6-0.9,0.6-1.4c0-0.5-0.2-1-0.6-1.4C11,8.8,10.5,8.6,10,8.6
		c-0.5,0-1,0.2-1.4,0.6C8.2,9.6,8,10.1,8,10.6L8,10.6L8,10.6z"/>
</g>
</svg>
