<svg id="图层_1" data-name="图层 1" xmlns="http://www.w3.org/2000/svg" viewBox="0 0 12.02 14"><defs><style>.cls-1{fill:#ccb0d5;}</style></defs><title>nav_icon_business center_default</title><path class="cls-1" d="M5.84,4.79h0L6,4.91H6L6.13,5h0l0.1,0h0l0.1,0h0l0.1,0a3,3,0,0,0,1.1.21,2.9,2.9,0,0,0,1.1-.21l0.1,0h0l0.1,0h0L9,5H9L9,4.92h0l0.18-.12h0l0.18-.13a3,3,0,1,0-3.76,0ZM9.52,5.41a3.61,3.61,0,0,1-3.94,0,5,5,0,0,0-3,4.25h0v1a2.65,2.65,0,0,0,2.64,2.67H9.85a2.65,2.65,0,0,0,2.64-2.67v-1h0A5,5,0,0,0,9.52,5.41ZM14.59,8.6h0a4.67,4.67,0,0,0-2.34-3.73,3,3,0,0,0-2-4.93,4.57,4.57,0,0,1,.53.79,2.35,2.35,0,0,1,.55,4.11c0.17,0.17.33,0.35,0.48,0.53A4,4,0,0,1,13.93,8.6h0V9.23a2,2,0,0,1-.77,1.59,7,7,0,0,1-.25,1,2.61,2.61,0,0,0,1.68-2.45V8.6h0Z" transform="translate(-2.59 0.67)"/></svg>