<svg xmlns="http://www.w3.org/2000/svg" width="11" height="11" viewBox="0 0 11 11">
  <defs>
    <style>
      .cls-1 {
        fill: #0e0ea8;
        fill-rule: evenodd;
      }
    </style>
  </defs>
  <path id="矩形_8" data-name="矩形 8" class="cls-1" d="M1135.42,38a5.5,5.5,0,1,0,5.58,5.443A5.482,5.482,0,0,0,1135.42,38h0Zm0.08,9.432h-0.04a0.757,0.757,0,0,1-.75-0.813,0.777,0.777,0,0,1,.77-0.775h0.02a0.775,0.775,0,0,1,.78.813,0.744,0.744,0,0,1-.78.775h0Zm2.01-4.087a3.352,3.352,0,0,1-.71.62l-0.37.252a0.976,0.976,0,0,0-.37.446,0.771,0.771,0,0,0-.06.368v0.058h-1.39V44.972a1.548,1.548,0,0,1,.23-0.988,5.74,5.74,0,0,1,1.03-.813,1.516,1.516,0,0,0,.25-0.252,0.76,0.76,0,0,0,.21-0.5,0.886,0.886,0,0,0-.19-0.581,0.991,0.991,0,0,0-1.38.058,1.316,1.316,0,0,0-.21.678v0.058h-1.43V42.57a2.1,2.1,0,0,1,.93-1.84,2.442,2.442,0,0,1,1.33-.349,3.111,3.111,0,0,1,1.75.484,1.708,1.708,0,0,1,.69,1.472,1.582,1.582,0,0,1-.31,1.007h0Z" transform="translate(-1130 -38)"/>
</svg>
