<svg id="图层_1" data-name="图层 1" xmlns="http://www.w3.org/2000/svg" viewBox="0 0 30 30.11"><defs><style>.cls-1{fill:#c63836;}</style></defs><title>03.act_icon_login_default</title><path class="cls-1" d="M69.29,97.11a0.69,0.69,0,0,0-.25,0,0.79,0.79,0,0,0-.71.84c0.07,0.67,1.1,1.68,3.32,1.81C71,98.49,70.14,97.11,69.29,97.11Z" transform="translate(-58.99 -89.88)"/><path class="cls-1" d="M79.24,97.1a0.82,0.82,0,0,0-.25,0c-0.86,0-1.76,1.36-2.35,2.68,2.21-.13,3.22-1.13,3.31-1.8A0.8,0.8,0,0,0,79.24,97.1Z" transform="translate(-58.99 -89.88)"/><path class="cls-1" d="M87.33,89.88H60.66A1.73,1.73,0,0,0,59,91.68v26.51a1.74,1.74,0,0,0,1.67,1.8H87.33a1.74,1.74,0,0,0,1.67-1.8V91.68A1.73,1.73,0,0,0,87.33,89.88Zm-3.72,13.93H81.93v10.91H75.08V103.82H72.91v10.91H66.07V103.82h-1.7v-3.06h3.89a3.66,3.66,0,0,1-1.85-2.5,2.68,2.68,0,0,1,2.09-2.95,2.82,2.82,0,0,1,.79-0.12c2.5,0,3.9,3.25,4.47,4.67h0.75c0.52-1.4,2-4.71,4.48-4.71a2.79,2.79,0,0,1,.79.11,2.67,2.67,0,0,1,2.09,2.95A3.65,3.65,0,0,1,80,100.76h3.66v3.06Z" transform="translate(-58.99 -89.88)"/></svg>