<svg id="图层_1" data-name="图层 1" xmlns="http://www.w3.org/2000/svg" viewBox="0 0 30 30.57"><defs><style>.cls-1{fill:#884396;}</style></defs><title>04.recommend_icon_login_default</title><path class="cls-1" d="M67,109.23c0,6.58,0,6.6,0,6.7a5.16,5.16,0,0,0,2.78,3.64,9,9,0,0,0,3.9.66l4.25,0,2.74,0a6.15,6.15,0,0,0,2.56-.38,3.17,3.17,0,0,0,2.17-2.49,2.15,2.15,0,0,0-.26-1.23,3.83,3.83,0,0,0,1.43-2.14,2.45,2.45,0,0,0-.45-1.51l0,0a4.14,4.14,0,0,0,1.32-2.29,3.39,3.39,0,0,0-.47-2,4.38,4.38,0,0,0,1.61-2.59,4.17,4.17,0,0,0-.94-3.28,4.84,4.84,0,0,0-3.18-1.7c-0.08,0-.2,0-1.61,0s-3.27,0-4.45,0l0.16-.34a14.36,14.36,0,0,0,1.33-3.4,7.17,7.17,0,0,0-1.31-5.3,4.82,4.82,0,0,0-2.23-1.48h0a5.77,5.77,0,0,0-1.83-.25c-0.43,0-.76,0-0.87,0h0a2,2,0,0,0-1.81,1.41,7.49,7.49,0,0,0-.28,2.15,5.23,5.23,0,0,1-.21,1.64,14.3,14.3,0,0,1-1.57,2.4c-1.15,1.54-2.46,3.3-2.68,5.33C67.05,102.69,67,106.25,67,109.23Z" transform="translate(-58.62 -89.65)"/><path class="cls-1" d="M58.62,104.11V117.2a1.6,1.6,0,0,0,1.66,1.53h3a1.72,1.72,0,0,0,1.17-.45,1.47,1.47,0,0,0,.49-1.08V104.11a1.6,1.6,0,0,0-1.65-1.53h-3a1.72,1.72,0,0,0-1.17.45A1.47,1.47,0,0,0,58.62,104.11Z" transform="translate(-58.62 -89.65)"/></svg>