<svg id="图层_1" data-name="图层 1" xmlns="http://www.w3.org/2000/svg" viewBox="0 0 30 30"><defs><style>.cls-1{fill:#568c43;}</style></defs><title>05.like_icon_login_default</title><path class="cls-1" d="M83,102.85c0,2.6-2,3.86-4,5.08-0.48.3-.94,0.58-1.37,0.89a17,17,0,0,0-3.55,3.38,14.45,14.45,0,0,0-3.61-3.35c-0.36-.23-0.73-0.46-1.12-0.69-2.07-1.25-4.22-2.54-4.2-5.26,0-3.58,2.12-5.22,4.06-5.22,1.72,0,3.27,1.2,4.13,3.21a0.77,0.77,0,0,0,.71.47h0a0.77,0.77,0,0,0,.71-0.47A4.63,4.63,0,0,1,79,97.75C80.91,97.75,83,99.35,83,102.85Z" transform="translate(-59.12 -89.94)"/><path class="cls-1" d="M74.12,89.94a15,15,0,1,0,15,15A15,15,0,0,0,74.12,89.94Zm5.75,19.88c-0.46.29-.9,0.56-1.3,0.84a12.15,12.15,0,0,0-3.7,3.86,0.77,0.77,0,0,1-.73.58h0a0.77,0.77,0,0,1-.74-0.55,10.55,10.55,0,0,0-3.7-3.83c-0.33-.22-0.69-0.43-1.07-0.66a15.18,15.18,0,0,1-3.26-2.39,5.8,5.8,0,0,1-1.69-4.2,7.39,7.39,0,0,1,1.7-5,5.18,5.18,0,0,1,3.91-1.8,5.4,5.4,0,0,1,3.16,1,6.77,6.77,0,0,1,1.68,1.78,6.58,6.58,0,0,1,1.67-1.72,5.53,5.53,0,0,1,3.19-1,5.21,5.21,0,0,1,3.89,1.74,7.19,7.19,0,0,1,1.7,4.89C84.59,106.89,82,108.51,79.87,109.82Z" transform="translate(-59.12 -89.94)"/></svg>