<svg id="图层_1" data-name="图层 1" xmlns="http://www.w3.org/2000/svg" viewBox="0 0 15.82 15.02"><defs><style>.cls-1{fill:#1e2c65;}</style></defs><title>11.content_icon_favorable_pressed</title><path class="cls-1" d="M76.21,98.86a1.66,1.66,0,0,1-.31.92,1.67,1.67,0,0,1,.76,2.52,1.66,1.66,0,0,1,.83,2.43l2.72,0.08a1.67,1.67,0,1,1-.09,3.33L74,108l1.91,1.18a1.62,1.62,0,0,1,.77,1,1.56,1.56,0,0,1-.2,1.21,1.78,1.78,0,0,1-2.3.58c-0.05,0-1.12-.59-4.4-2.34A8.81,8.81,0,0,1,66.51,107a2.42,2.42,0,0,1-.49-1.31l0.11-4.17a3.35,3.35,0,0,1,.66-1.93,4.77,4.77,0,0,1,1.73-1.4,13,13,0,0,1,6.06-1,1.67,1.67,0,0,1,1.62,1.71h0Zm-7.31.06a3.1,3.1,0,0,0-1.94,2.6l-0.11,4.16a2,2,0,0,0,.41.92,8.11,8.11,0,0,0,2.89,2.28c3.33,1.78,4.38,2.33,4.39,2.34h0a0.94,0.94,0,0,0,1.21-.29,0.73,0.73,0,0,0,.09-0.57,0.8,0.8,0,0,0-.38-0.5h0l-2.22-1.36a0.72,0.72,0,1,1,.39-1.37l6.51,0.18a0.83,0.83,0,1,0,0-1.67l-5.42-.15a0.42,0.42,0,0,1,0-.83l1.25,0a0.83,0.83,0,0,0,0-1.67l-1.25,0a0.42,0.42,0,1,1,0-.83h0.42a0.83,0.83,0,0,0,0-1.67l-1.25,0a0.42,0.42,0,0,1,0-.83h0.42a0.83,0.83,0,1,0,0-1.67,12.24,12.24,0,0,0-5.67.94h0Z" transform="translate(-66.01 -97.14)"/></svg>