<svg id="图层_1" data-name="图层 1" xmlns="http://www.w3.org/2000/svg" viewBox="0 0 25.82 30"><defs><style>.cls-1{fill:#ba3736;}</style></defs><title>14hot_icon_login_default</title><path class="cls-1" d="M16,16.85c-1.1,0-1.65.82-1.65,2.06S14.88,21,16,21s1.65-.69,1.65-2.06S17.08,17,16,16.85Z" transform="translate(-2.43 1.42)"/><path class="cls-1" d="M21.89,4.07c0.69,1.65.82,4.12-.55,5.5C19,0.5,13.1-1.42,13.1-1.42c0.69,4.67-2.47,9.76-5.63,13.6A10.56,10.56,0,0,0,6.23,7.23C6,10.67,3.48,13.42,2.65,16.72a8.63,8.63,0,0,0,1.92,7.83c3.3,3.16,11.82,7.15,20.48.14,8-8.11-1.24-19.24-3.16-20.61h0ZM12,22.21H10.49V19.6H7.74v2.61H6.23V15.75H7.74v2.61h2.89V15.75h1.51v6.46H12Zm4,0.14a3.18,3.18,0,0,1-3.3-3.3c0.14-2.2,1.24-3.3,3.3-3.44,2.06,0.14,3,1.24,3.16,3.44A3,3,0,0,1,16,22.35ZM23.4,17v5.36H21.89V17H19.83V15.75h5.63V17H23.4Z" transform="translate(-2.43 1.42)"/></svg>