<svg id="图层_1" data-name="图层 1" xmlns="http://www.w3.org/2000/svg" viewBox="0 0 14.87 20"><defs><style>.cls-1{fill:#e61d36;}</style></defs><title>21shop_icon_tag_default</title><path class="cls-1" d="M20.12,6.33H7.84A1.07,1.07,0,0,0,6.56,7.66v12.9a0.75,0.75,0,0,0,.1.36,0.69,0.69,0,0,0,.28.46l6.64,4.82a0.69,0.69,0,0,0,.82,0L21,21.38a1.34,1.34,0,0,0,.35-0.75l0-13A1.1,1.1,0,0,0,20.12,6.33Zm0,14L14,24.77,7.85,20.31V7.63H20.14V20.31Z" transform="translate(-6.56 -6.33)"/><path class="cls-1" d="M10.92,15.43s-0.27,1.5-.39,2.53a0.7,0.7,0,0,0,.69.68,0.78,0.78,0,0,0,.32-0.07L14,17.4l2.46,1.19a0.76,0.76,0,0,0,.32.07A0.68,0.68,0,0,0,17.46,18c-0.12-1-.3-2.53-0.3-2.53L19,13.3a0.59,0.59,0,0,0-.41-0.94L16,11.88s-0.8-1.47-1.35-2.41c-0.4-.7-0.44-0.72-0.62-0.72s-0.27.07-.61,0.72c-0.56.94-1.37,2.41-1.37,2.41s-1.6.36-2.64,0.54a0.5,0.5,0,0,0-.42.81l1.94,2.2h0Z" transform="translate(-6.56 -6.33)"/><path class="cls-1" d="M12.64,13.18" transform="translate(-6.56 -6.33)"/></svg>