<svg id="图层_1" data-name="图层 1" xmlns="http://www.w3.org/2000/svg" viewBox="0 0 46 46.16"><defs><style>.cls-1{fill:#d91817;}</style></defs><title>symbolize_icon_system_default</title><path class="cls-1" d="M43.45,0H2.56A2.66,2.66,0,0,0,0,2.76V43.41a2.66,2.66,0,0,0,2.56,2.76H43.45A2.66,2.66,0,0,0,46,43.41V2.76A2.66,2.66,0,0,0,43.45,0ZM25,36v0.1a4.15,4.15,0,0,1-.22,1.28,2.41,2.41,0,0,1-.68,1.08,1.47,1.47,0,0,1-1.15.33,2.94,2.94,0,0,1-1.62-.91q-1.61-1.45-3.42-3c-1.2-1.06-2.32-2-3.35-2.91q-1.81-1.52-3.6-3c-0.23,0-.46,0-0.7,0a5,5,0,0,1-.6,0H9.1a1.92,1.92,0,0,1-1.39-.52,1.69,1.69,0,0,1-.54-1.25v-8h0l0,0a2,2,0,0,1,.55-1.45A1.84,1.84,0,0,1,9.1,17.2h1.8q2.91-2.46,5.28-4.43l2-1.66,1.77-1.47,1.33-1.11L21.94,8a2.44,2.44,0,0,1,1.54-.63,1.22,1.22,0,0,1,.92.57,3.27,3.27,0,0,1,.46,1.24A7.6,7.6,0,0,1,25,10.49V36Zm4.31-8.22a1.35,1.35,0,0,1-.4-1A1.49,1.49,0,0,1,29,26.31h0a4,4,0,0,1,.38-0.66c0.14-.21.28-0.43,0.42-0.65a3.45,3.45,0,0,0,.35-0.76,3.36,3.36,0,0,0,.14-1,3.24,3.24,0,0,0-.14-1,4.15,4.15,0,0,0-.35-0.78c-0.14-.23-0.27-0.45-0.42-0.66A2.76,2.76,0,0,1,29,20.11a1.31,1.31,0,0,1-.09-0.51,1.35,1.35,0,0,1,.4-1,1.27,1.27,0,0,1,1-.41,1,1,0,0,1,.73.27,4.52,4.52,0,0,1,.54.61,9.68,9.68,0,0,1,1.06,1.85A5.85,5.85,0,0,1,33,23.21a6,6,0,0,1-.41,2.28,7.83,7.83,0,0,1-1,1.84,4.53,4.53,0,0,1-.54.62,1,1,0,0,1-.73.27A1.29,1.29,0,0,1,29.29,27.8Zm9.12-1.56A12.32,12.32,0,0,1,37.26,29a12.86,12.86,0,0,1-1.75,2.39,13.26,13.26,0,0,1-2.22,1.92,1.45,1.45,0,0,1-.88.28,1.48,1.48,0,0,1-1.09-.46,1.53,1.53,0,0,1,.08-2.26l0.06,0,0.06,0,0,0a9.42,9.42,0,0,0,1.65-1.42,10.44,10.44,0,0,0,1.33-1.79,8.94,8.94,0,0,0,.89-2.06,8.38,8.38,0,0,0-.89-6.59,10.68,10.68,0,0,0-3-3.22,1.55,1.55,0,0,1,.89-2.81,1.44,1.44,0,0,1,.95.35,13.88,13.88,0,0,1,2.18,1.92,12.58,12.58,0,0,1,1.74,2.37,12.43,12.43,0,0,1,1.14,2.73,11,11,0,0,1,.41,3A11.26,11.26,0,0,1,38.41,26.24Z"/></svg>