<svg id="图层_1" data-name="图层 1" xmlns="http://www.w3.org/2000/svg" viewBox="0 0 16 14.2"><defs><style>.cls-1{fill:#005aff;}</style></defs><title>table_icon_report_hover</title><path class="cls-1" d="M14.34,9.72L7.62-1.89a1.32,1.32,0,0,0-1.12-.63,1.26,1.26,0,0,0-1.12.63L-1.33,9.72a1.48,1.48,0,0,0,0,1.33,1.32,1.32,0,0,0,1.12.63H13.22a1.3,1.3,0,0,0,1.15-.7A1.33,1.33,0,0,0,14.34,9.72Zm-7.27-.8a0.54,0.54,0,0,1-.55.56,0.56,0.56,0,0,1-.57-0.56V8.29a0.56,0.56,0,0,1,.57-0.56,0.51,0.51,0,0,1,.55.56V8.92Zm0-2.79a0.54,0.54,0,0,1-.55.56,0.56,0.56,0,0,1-.57-0.56V2.83a0.56,0.56,0,0,1,.57-0.56,0.51,0.51,0,0,1,.55.56v3.3h0Z" transform="translate(1.49 2.52)"/></svg>