<svg id="图层_1" data-name="图层 1" xmlns="http://www.w3.org/2000/svg" viewBox="0 0 22 21.2"><defs><style>.cls-1{fill:#919191;}</style></defs><title>table_icon_like_default</title><path class="cls-1" d="M6.8-5.8c2,0.5,2.71,1.9,2.64,3.81,0,1.18-.2,2.36-0.31,3.64h4.41c2.57,0,3.69,1.44,3.12,4S15.58,10.42,15,12.83c-0.42,1.88-1.25,2.56-3.2,2.56H-3.74c-1.29,0-1.44-.16-1.44-1.46,0-3.31,0-6.61,0-9.92A1.2,1.2,0,0,1-3.79,2.56a23.45,23.45,0,0,0,3-.08A5.29,5.29,0,0,0,3.94-2.37,3.38,3.38,0,0,1,6.36-5.8H6.8ZM0.27,13.62H12.18a1.17,1.17,0,0,0,1.13-1.22Q14.12,8.85,14.9,5.3c0.34-1.55.09-1.86-1.54-1.87s-3.41,0-5.12,0C6.77,3.4,6.46,3,7.06,1.6A7.89,7.89,0,0,0,7.6-3C7.46-3.8,6.7-4.2,6.22-3.7a2,2,0,0,0-.42,1.17A7.32,7.32,0,0,1,.91,4a1.07,1.07,0,0,0-.62.71c0,2.93,0,5.86,0,8.95h0Zm-1.82,0V4.45H-3.34v9.13h1.79Z" transform="translate(5.2 5.81)"/></svg>