<svg id="图层_1" data-name="图层 1" xmlns="http://www.w3.org/2000/svg" viewBox="0 0 17.99 16"><defs><style>.cls-1{fill:#005aff;}</style></defs><title>table_icon_apply-merchant_hover</title><path class="cls-1" d="M1.94,12.67A0.67,0.67,0,0,1,1.26,12,7.25,7.25,0,0,1,2.73,7.61a7.43,7.43,0,0,1,3.2-2.43,4.67,4.67,0,1,1,7.33-3.84A4.68,4.68,0,0,1,8.65,6H8.55a6,6,0,0,0-5.95,6,0.67,0.67,0,0,1-.67.67h0ZM8.59-2a3.32,3.32,0,1,0,3.32,3.32A3.32,3.32,0,0,0,8.59-2Z" transform="translate(2.29 3.32)"/><path class="cls-1" d="M8.59-3.07a4.41,4.41,0,0,0-2.08,8.3,7.09,7.09,0,0,0-5,6.76,0.42,0.42,0,0,0,.84,0,6.24,6.24,0,0,1,6.2-6.24H8.64A4.42,4.42,0,0,0,13,1.34,4.42,4.42,0,0,0,8.59-3.07Zm0,8a3.57,3.57,0,1,1,3.57-3.57A3.57,3.57,0,0,1,8.59,4.91Z" transform="translate(2.29 3.32)"/><path class="cls-1" d="M-1.61,11.34a0.67,0.67,0,0,1-.67-0.67A6.32,6.32,0,0,1,1.37,4.86,4.15,4.15,0,0,1-.15,1.64,4,4,0,0,1,3.71-2.42a0.67,0.67,0,0,1,.67.67,0.67,0.67,0,0,1-.67.67A2.62,2.62,0,0,0,1.19,1.63,2.62,2.62,0,0,0,3.71,4.34a0.68,0.68,0,0,1,0,1.36,4.82,4.82,0,0,0-4.65,5A0.67,0.67,0,0,1-1.61,11.34Z" transform="translate(2.29 3.32)"/><path class="cls-1" d="M3.71,5.45a5.07,5.07,0,0,0-4.91,5.22,0.42,0.42,0,0,1-.42.42A0.42,0.42,0,0,1-2,10.67,6.05,6.05,0,0,1,1.89,4.92,3.84,3.84,0,0,1,.1,1.64,3.72,3.72,0,0,1,3.71-2.17a0.42,0.42,0,0,1,.42.42,0.42,0.42,0,0,1-.42.42,2.88,2.88,0,0,0-2.77,3,2.87,2.87,0,0,0,2.77,3A0.42,0.42,0,0,1,4.13,5a0.42,0.42,0,0,1-.42.44h0Zm8.55,7.23A0.71,0.71,0,0,1,11.55,12V10h-2a0.71,0.71,0,0,1,0-1.42h2v-2a0.71,0.71,0,1,1,1.42,0v2h2A0.71,0.71,0,0,1,15,10H13v2a0.71,0.71,0,0,1-.71.71h0Z" transform="translate(2.29 3.32)"/><path class="cls-1" d="M15,9.7H12.71V12a0.45,0.45,0,0,1-.91,0V9.7H9.52a0.45,0.45,0,0,1,0-.91H11.8V6.53a0.45,0.45,0,1,1,.91,0V8.79H15A0.45,0.45,0,0,1,15,9.7Z" transform="translate(2.29 3.32)"/><circle class="cls-1" cx="11.1" cy="4.7" r="3.54"/></svg>