<svg id="图层_1" data-name="图层 1" xmlns="http://www.w3.org/2000/svg" viewBox="0 0 14 15.05"><defs><style>.cls-1{fill:#e12727;}</style></defs><title>table_icon_close_hover</title><path class="cls-1" d="M10.48-.44A7,7,0,0,1,11.73.71a7.49,7.49,0,0,1,.94,1.38,6.88,6.88,0,0,1,.59,1.57,7,7,0,0,1,.2,1.68,6.9,6.9,0,0,1-.56,2.76,7.22,7.22,0,0,1-1.5,2.25,7.14,7.14,0,0,1-2.22,1.52,6.7,6.7,0,0,1-2.73.56,6.66,6.66,0,0,1-2.71-.56,7.23,7.23,0,0,1-2.23-1.52,7.05,7.05,0,0,1-2-5,7,7,0,0,1,.2-1.64A7.34,7.34,0,0,1,.22,2.17,6.76,6.76,0,0,1,1.11.81,7.64,7.64,0,0,1,2.3-.33,1,1,0,0,1,3-.52a1,1,0,0,1,.65.4,1,1,0,0,1,.19.74,1,1,0,0,1-.39.66A4.9,4.9,0,0,0,2,3.07a5.06,5.06,0,0,0-.52,2.28,5,5,0,0,0,.39,2A5.06,5.06,0,0,0,4.51,10a4.9,4.9,0,0,0,3.89,0A5.13,5.13,0,0,0,10,8.93a5.19,5.19,0,0,0,1.08-1.61,4.92,4.92,0,0,0,.4-2A5,5,0,0,0,10.92,3,4.92,4.92,0,0,0,9.34,1.21,1,1,0,0,1,8.92.56,1,1,0,0,1,9.09-.2,1,1,0,0,1,9.73-.6a1,1,0,0,1,.75.17h0Zm-4,5.83a0.94,0.94,0,0,1-.7-0.29,1,1,0,0,1-.29-0.7v-6a1,1,0,0,1,.29-0.71,0.93,0.93,0,0,1,.7-0.3,1,1,0,0,1,.71.3,1,1,0,0,1,.29.71v6a1,1,0,0,1-1,1h0Z" transform="translate(0.53 2.62)"/></svg>