<svg id="图层_1" data-name="图层 1" xmlns="http://www.w3.org/2000/svg" viewBox="0 0 22 20.22"><defs><style>.cls-1{fill:#919191;}</style></defs><title>table_icon_comment_default</title><path class="cls-1" d="M-0.4,3.34a1.6,1.6,0,1,0,1.6-1.6A1.6,1.6,0,0,0-.4,3.34Z" transform="translate(4.64 5.26)"/><path class="cls-1" d="M4.76,3.34a1.6,1.6,0,1,0,1.6-1.6A1.6,1.6,0,0,0,4.76,3.34Z" transform="translate(4.64 5.26)"/><path class="cls-1" d="M9.92,3.34a1.6,1.6,0,1,0,1.6-1.6A1.6,1.6,0,0,0,9.92,3.34Z" transform="translate(4.64 5.26)"/><path class="cls-1" d="M6.36-5.26c-6.08,0-11,3.85-11,8.59A8,8,0,0,0-.79,9.86L0.05,14.4a0.75,0.75,0,0,0,0,.14h0v0h0v0h0v0h0v0h0l0,0h0a0.7,0.7,0,0,0,.26.2h0A0.65,0.65,0,0,0,.8,15H0.89a0.65,0.65,0,0,0,.23-0.1L5.37,11.9c0.33,0,.66,0,1,0,6.08,0,11-3.85,11-8.59S12.44-5.26,6.36-5.26ZM13.3,8.33A10.13,10.13,0,0,1,10.21,10a12.28,12.28,0,0,1-3.85.61c-0.37,0-.74,0-1.11,0h0a0.68,0.68,0,0,0-.47.12L1.21,13.1,0.5,9.32A0.68,0.68,0,0,0,.18,8.86h0C-0.08,8.69-.33,8.52-0.57,8.33a7.42,7.42,0,0,1-2-2.3,5.62,5.62,0,0,1-.7-2.69A5.62,5.62,0,0,1-2.56.64a7.42,7.42,0,0,1,2-2.3A10.13,10.13,0,0,1,2.51-3.28a12.28,12.28,0,0,1,3.85-.61,12.28,12.28,0,0,1,3.85.61A10.16,10.16,0,0,1,13.3-1.66a7.42,7.42,0,0,1,2,2.3A5.62,5.62,0,0,1,16,3.34,5.62,5.62,0,0,1,15.29,6,7.38,7.38,0,0,1,13.3,8.33Z" transform="translate(4.64 5.26)"/></svg>