<svg id="图层_1" data-name="图层 1" xmlns="http://www.w3.org/2000/svg" viewBox="0 0 14 15.05"><defs><style>.cls-1{fill:#005aff;}</style></defs><title>table_icon_begin_hover</title><path class="cls-1" d="M10.11-1.22A7,7,0,0,1,11.36-.07a7.49,7.49,0,0,1,.94,1.38,6.88,6.88,0,0,1,.59,1.57,7,7,0,0,1,.2,1.68,6.9,6.9,0,0,1-.56,2.76A7.22,7.22,0,0,1,11,9.57a7.14,7.14,0,0,1-2.22,1.52,6.7,6.7,0,0,1-2.73.56,6.66,6.66,0,0,1-2.71-.56A7.23,7.23,0,0,1,1.14,9.57,7,7,0,0,1-.36,7.33,7,7,0,0,1-.91,4.57a7,7,0,0,1,.2-1.64A7.34,7.34,0,0,1-.15,1.39,6.76,6.76,0,0,1,.74,0,7.64,7.64,0,0,1,1.93-1.11,1,1,0,0,1,2.67-1.3a1,1,0,0,1,.65.4,1,1,0,0,1,.19.74,1,1,0,0,1-.39.66A4.9,4.9,0,0,0,1.6,2.29a5.06,5.06,0,0,0-.52,2.28,5,5,0,0,0,.39,2A5.08,5.08,0,0,0,2.54,8.15a5.13,5.13,0,0,0,1.6,1.09A4.9,4.9,0,0,0,8,9.24a5.13,5.13,0,0,0,1.6-1.09,5.19,5.19,0,0,0,1.08-1.61,4.92,4.92,0,0,0,.4-2,5,5,0,0,0-.56-2.33A4.92,4.92,0,0,0,9,.43,1,1,0,0,1,8.55-.22,1,1,0,0,1,8.71-1a1,1,0,0,1,.64-0.4,1,1,0,0,1,.75.17h0Zm-4,5.83a0.94,0.94,0,0,1-.7-0.29,1,1,0,0,1-.29-0.7v-6A1,1,0,0,1,5.39-3.1a0.93,0.93,0,0,1,.7-0.3,1,1,0,0,1,.71.3,1,1,0,0,1,.29.71v6a1,1,0,0,1-1,1h0Z" transform="translate(0.91 3.4)"/></svg>