<svg xmlns="http://www.w3.org/2000/svg" width="42" height="45" viewBox="0 0 42 45">
  <defs>
    <style>
      .cls-1 {
        fill: #fdf7ee;
        fill-rule: evenodd;
      }
    </style>
  </defs>
  <path id="矩形_17" data-name="矩形 17" class="cls-1" d="M715.506,35.062L703.053,22.473A1.636,1.636,0,0,0,701.905,22a1.58,1.58,0,0,0-1.136.5L677.591,46.968a1.737,1.737,0,0,0-.435.858l-3.129,17.2a1.684,1.684,0,0,0,.467,1.5,1.575,1.575,0,0,0,1.123.468,1.681,1.681,0,0,0,.353-0.039l14.762-3.394a1.626,1.626,0,0,0,.814-0.468l24-25.691a1.7,1.7,0,0,0-.044-2.341h0ZM690.978,58.894L684.8,52.573a1.576,1.576,0,0,0-2.284.013,1.694,1.694,0,0,0,.013,2.354l5.671,5.794-10.535,2.425,2.586-14.227,21.7-22.915,10.157,10.268L690.978,58.894h0Z" transform="translate(-674 -22)"/>
</svg>
