<?xml version="1.0" standalone="no"?><!DOCTYPE svg PUBLIC "-//W3C//DTD SVG 1.1//EN" "http://www.w3.org/Graphics/SVG/1.1/DTD/svg11.dtd"><svg t="1489027764220" class="icon" style="" viewBox="0 0 1024 1024" version="1.1" xmlns="http://www.w3.org/2000/svg" p-id="39268" xmlns:xlink="http://www.w3.org/1999/xlink" width="32" height="32"><defs><style type="text/css"></style></defs><path d="M685.045 478.369v-152.626h84.805s43.027-3.057 59.252 18.902c16.221 21.958 11.86 50.92 11.86 50.92v227.017s2.884 34.391-15.263 54.748c-18.142 20.356-50.637 19.205-50.637 19.205h-90.022v-147.958l-199.73 178.214 199.734 191.268v-147.368h122.007c74.156 0 114.324-40.169 114.324-114.329v-290.454c0-74.156-40.169-114.324-114.324-114.324h-122.007v-147.225l-199.734 180.318 199.734 193.691zM108.948 476.59h337.506v-373.323h-337.506v373.323zM108.948 919.008h338.812v-372.914h-338.812v372.914zM370.705 622.371v222.476h-185.626v-222.476h185.626z" fill="#2c2c2c" p-id="39269"></path><path d="M691.369 932.876l-215.373-206.248 215.373-192.166v155.749l84.654 0.012c4.963 0 30.454-0.822 44.954-17.102 16.077-18.033 13.706-49.702 13.682-50.022l-0.022-0.518 0.072-227.958c0.038-0.253 3.711-26.718-10.697-46.223-11.295-15.288-40.177-16.477-48.761-16.477-2.993 0-4.845 0.122-4.958 0.127l-0.439 0.017h-78.482v161.243l-215.313-208.798 215.308-194.387v155.13h115.682c77.803 0 120.649 42.85 120.649 120.65v290.452c0 77.802-42.846 120.652-120.649 120.652h-115.682v155.867zM494.629 726.957l184.091 176.291v-138.876h128.331c70.657 0 108-37.347 108-108.005v-290.46c0-70.657-37.343-108-108-108h-128.331v-139.318l-184.155 166.253 184.155 178.581v-144.003h90.928c3.601-0.228 46.855-2.467 64.539 21.466 16.562 22.418 13.652 50.818 13.1 55.111v226.346c0.27 3.744 2.168 37.853-16.866 59.201-18.096 20.301-48.492 21.335-54.399 21.335-0.771 0-1.185-0.017-1.185-0.017l-96.118 0.005v-140.162l-184.091 164.254zM454.090 925.332h-351.466v-385.562h351.46v385.562zM115.273 912.684h326.163v-360.264h-326.163v360.264zM377.028 851.173h-198.275v-235.125h198.275v235.125zM191.402 838.525h172.976v-209.828h-172.976v209.828zM452.778 482.913h-350.153v-385.971h350.153v385.971zM115.273 470.265h324.856v-360.673h-324.856v360.673z" fill="#2c2c2c" p-id="39270"></path></svg>