<svg id="图层_1" data-name="图层 1" xmlns="http://www.w3.org/2000/svg" viewBox="0 0 31.94 32"><defs><style>.cls-1{fill:#fff;fill-rule:evenodd;}</style></defs><title>05.关于</title><path class="cls-1" d="M20,18.73a2.11,2.11,0,1,0-2.1-2.11A2.11,2.11,0,0,0,20,18.73h0m0,12.63a2.11,2.11,0,0,0,2.1-2.11V22.94a2.1,2.1,0,1,0-4.2,0v6.32A2.11,2.11,0,0,0,20,31.36h0m0,7.58a16,16,0,1,0-16-16,16,16,0,0,0,16,16h0M20,9.25A13.68,13.68,0,1,1,6.34,22.94,13.69,13.69,0,0,1,20,9.25h0m0,0" transform="translate(-4.03 -6.94)"/></svg>