<svg id="图层_1" data-name="图层 1" xmlns="http://www.w3.org/2000/svg" viewBox="0 0 33.3 32"><defs><style>.cls-1{fill:#fff;fill-rule:evenodd;}</style></defs><title>02.动态</title><path class="cls-1" d="M17.35,14.19c1.31-1.42,4.27-9.42,6.08-9.46s4.26,6.75,5.39,9.08c2.41,2.61,11.15,1,11.18,3.76,0,2.13-6.61,5.91-7.31,7.64a4.27,4.27,0,0,0,.11,2.27c0.25,1.41,2.24,8,.43,8.77-2.82,1.14-6.78-3.32-9.85-3.94-3.24-.66-7.87,5.75-10.62,4.17-2.3-1.33,2.46-9.07.93-11.55-1.14-1.85-7.62-5.3-6.93-7.68,0.88-3,9-1.34,10.6-3.06h0Z" transform="translate(-6.7 -4.73)"/><path class="cls-1" d="M32,12.69c1.61,0.52,6.05,1.63,7.15.89,1.26-.84-2.71-3.13-2.88-4.29-0.1-.68.13-3-0.6-3.32C34.58,5.5,33,6.4,32,7.08c-1.62,1.11-3-1.93-4.41-.64-0.82.73,3,5.79,4.45,6.24h0Z" transform="translate(-6.7 -4.73)"/></svg>