<svg id="图层_1" data-name="图层 1" xmlns="http://www.w3.org/2000/svg" viewBox="0 0 32 32"><defs><style>.cls-1{fill:#fff;fill-rule:evenodd;}</style></defs><title>03.产品分类</title><path class="cls-1" d="M13,2.8a7.13,7.13,0,1,0,0,14.26h7.14V9.93A7.13,7.13,0,0,0,13,2.8M30.72,4.09a5.84,5.84,0,1,1,0,11.68H24.88V9.93a5.84,5.84,0,0,1,5.85-5.84h0Zm0-1.29a7.13,7.13,0,0,0-7.14,7.13v7.13h7.14a7.13,7.13,0,1,0,0-14.26h0m0,32a7.13,7.13,0,1,0,0-14.26H23.59v7.13a7.13,7.13,0,0,0,7.14,7.13M13,34.8a7.13,7.13,0,1,1,0-14.26h7.14v7.13A7.13,7.13,0,0,1,13,34.8" transform="translate(-5.86 -2.8)"/></svg>