<svg id="图层_1" data-name="图层 1" xmlns="http://www.w3.org/2000/svg" viewBox="0 0 35.24 32"><defs><style>.cls-1{fill:#fff;fill-rule:evenodd;}</style></defs><title>01.首页</title><path class="cls-1" d="M35,16.24L17.62,0,0.27,16.19a0.84,0.84,0,0,0,1.15,1.23L17.62,2.3,33.83,17.47A0.84,0.84,0,0,0,35,16.24h0Z"/><path class="cls-1" d="M29.68,16.58a0.84,0.84,0,0,0-.84.84v12.9H22.11v-9h-9v9H6.4V17.42a0.84,0.84,0,0,0-1.68,0V32h10.1V23h5.61v9h10.1V17.42a0.84,0.84,0,0,0-.84-0.84h0ZM23.79,4.52h5V9a0.84,0.84,0,1,0,1.68,0V2.83H23.79a0.84,0.84,0,1,0,0,1.68h0Z"/><polygon class="cls-1" points="5.86 30.65 13.62 30.65 13.62 22.06 21.15 22.06 21.15 30.65 29.51 30.65 29.51 17.34 34.15 17.34 17.62 1.67 0.5 17.12 5.78 17.34 5.86 30.65 5.86 30.65"/></svg>