<svg id="图层_1" data-name="图层 1" xmlns="http://www.w3.org/2000/svg" viewBox="0 0 26.51 32"><defs><style>.cls-1{fill:#fff;fill-rule:evenodd;}</style></defs><title>06.招聘</title><path class="cls-1" d="M20,19a8.55,8.55,0,0,1-8.59-8.5,8.59,8.59,0,0,1,17.18,0A8.55,8.55,0,0,1,20,19h0ZM20,3.63a6.84,6.84,0,1,0,6.91,6.84A6.89,6.89,0,0,0,20,3.63h0Z" transform="translate(-6.74 -1.97)"/><path class="cls-1" d="M26,34c-0.86,0-1.77,0-2.74,0s-2.17-.05-3.31-0.05l-2.69,0-2.33,0a19.53,19.53,0,0,1-5.59-.56A3.34,3.34,0,0,1,6.74,30c0-6.94,5.95-12.59,13.26-12.59S33.26,23.09,33.26,30C33.26,34,28.74,34,26,34h0Zm-6-1.75c1.16,0,2.28,0,3.35.05s1.86,0,2.7,0c4.65,0,5.53-.8,5.53-2.28,0-6-5.2-10.93-11.58-10.93S8.42,24,8.42,30a1.73,1.73,0,0,0,1.49,1.76,18.28,18.28,0,0,0,5.07.47l2.31,0,2.72,0h0Z" transform="translate(-6.74 -1.97)"/><path class="cls-1" d="M19.89,32.06a0.84,0.84,0,0,1-.53-0.19l-3-2.43a0.82,0.82,0,0,1-.26-0.91L18,23.22l-1.1-1.89a0.82,0.82,0,0,1-.08-0.65,0.83,0.83,0,0,1,.42-0.5A7.36,7.36,0,0,1,20,19.39a6,6,0,0,1,2.61.81,0.82,0.82,0,0,1,.29,1.14l-1.13,1.88,2.09,5.28a0.82,0.82,0,0,1-.27,1l-3.2,2.43a0.84,0.84,0,0,1-.51.17h0Zm-2-3.53,2,1.64,2.17-1.65-2-5.08a0.82,0.82,0,0,1,.06-0.73L21,21.27A3,3,0,0,0,20,21a3.9,3.9,0,0,0-1.19.26l0.82,1.41a0.82,0.82,0,0,1,.07.69l-1.8,5.12h0Z" transform="translate(-6.74 -1.97)"/></svg>