<svg id="图层_1" data-name="图层 1" xmlns="http://www.w3.org/2000/svg" viewBox="0 0 36.7 32"><defs><style>.cls-1{fill:#fff;fill-rule:evenodd;}</style></defs><title>04.优惠</title><path class="cls-1" d="M34.28,17A10.73,10.73,0,0,0,23.59,6.23a10.54,10.54,0,0,0-7.66,3.26A10.6,10.6,0,0,0,8.27,6.23,10.73,10.73,0,0,0-2.42,17a10.63,10.63,0,0,0,2.9,7.33l0.1,0.12,0.1,0.1,0.06,0.06,13.53,13a2.33,2.33,0,0,0,1.66.67,2.48,2.48,0,0,0,1.7-.69c0.43-.4,11.08-10.55,13.53-13l0,0,0,0,0.1-.1a10.76,10.76,0,0,0,3-7.49h0Zm-26-5.33a5.49,5.49,0,0,0-5.47,5.49,0.83,0.83,0,0,1-1.66,0A7.14,7.14,0,0,1,8.27,10a0.83,0.83,0,0,1,.83.83,0.81,0.81,0,0,1-.81.81h0Z" transform="translate(2.42 -6.23)"/></svg>