<svg id="图层_1" data-name="图层 1" xmlns="http://www.w3.org/2000/svg" viewBox="0 0 56 50.82"><defs><style>.cls-1{fill:#fff;}</style></defs><title>nav_icon_page_default</title><path class="cls-1" d="M45.21,16.38L17.61-9.41-9.95,16.3A1.34,1.34,0,0,0-10,18.19a1.34,1.34,0,0,0,1.89.06h0l25.73-24L43.35,18.33a1.35,1.35,0,0,0,1.86-2h0Z" transform="translate(10.37 9.41)"/><path class="cls-1" d="M36.76,16.92a1.33,1.33,0,0,0-1.33,1.33h0V38.74H24.74V24.45H10.45V38.74H-0.21V18.26a1.33,1.33,0,0,0-1.33-1.33,1.33,1.33,0,0,0-1.33,1.33V41.41h16V27.12h8.91V41.41h16V18.26a1.33,1.33,0,0,0-1.33-1.33h0ZM27.41-2.23h7.94V4.88a1.33,1.33,0,0,0,2.67,0v-9.8H27.41a1.33,1.33,0,0,0-1.33,1.33,1.33,1.33,0,0,0,1.33,1.33h0v0Z" transform="translate(10.37 9.41)"/></svg>