<svg xmlns="http://www.w3.org/2000/svg" width="16" height="16" viewBox="0 0 16 16">
  <defs>
    <style>
      .cls-1 {
        fill: #6cf;
        fill-rule: evenodd;
      }
    </style>
  </defs>
  <path id="矩形_8" data-name="矩形 8" class="cls-1" d="M887.889,353A8,8,0,1,0,896,360.915,7.976,7.976,0,0,0,887.889,353h0ZM888,366.719h-0.056a1.1,1.1,0,0,1-1.1-1.184,1.13,1.13,0,0,1,1.127-1.126H888a1.126,1.126,0,0,1,1.127,1.183A1.08,1.08,0,0,1,888,366.719h0Zm2.93-5.945a5.259,5.259,0,0,1-1.042.9l-0.536.366a1.374,1.374,0,0,0-.535.648,1.158,1.158,0,0,0-.084.535v0.085h-2.028v-0.169a2.207,2.207,0,0,1,.338-1.437,8.4,8.4,0,0,1,1.492-1.183,2.31,2.31,0,0,0,.367-0.366,1.157,1.157,0,0,0,.31-0.733,1.329,1.329,0,0,0-.282-0.845,1.433,1.433,0,0,0-2,.084,1.85,1.85,0,0,0-.31.986v0.085h-2.084v-0.085a3.042,3.042,0,0,1,1.352-2.676,3.565,3.565,0,0,1,1.943-.507,4.479,4.479,0,0,1,2.535.7,2.473,2.473,0,0,1,1.014,2.141,2.36,2.36,0,0,1-.45,1.465h0Z" transform="translate(-880 -353)"/>
</svg>
