<svg xmlns="http://www.w3.org/2000/svg" width="29.998" height="36.204" viewBox="0 0 29 35">
  <defs>
    <style>
      .cls-1 {
        fill: #f5f2f2;
        fill-rule: evenodd;
      }
    </style>
  </defs>
  <path id="矩形_28" data-name="矩形 28" class="cls-1" d="M72.5,912.594a9.3,9.3,0,1,1,9.394-9.3,9.357,9.357,0,0,1-9.394,9.3h0Zm0-16.784a7.486,7.486,0,1,0,7.563,7.486A7.533,7.533,0,0,0,72.5,895.81h0ZM79.116,929c-0.94,0-1.937-.024-2.994-0.049-1.165-.027-2.371-0.056-3.622-0.056-1.01,0-1.994.013-2.947,0.026-0.894.012-1.739,0.023-2.553,0.023a21.351,21.351,0,0,1-6.115-.61A3.65,3.65,0,0,1,58,924.688c0-7.592,6.5-13.768,14.5-13.768S87,917.1,87,924.688C87,929,82.064,929,79.116,929h0ZM72.5,927.082c1.273,0,2.49.029,3.666,0.056,1.045,0.025,2.032.049,2.95,0.049,5.087,0,6.052-.879,6.052-2.5,0-6.592-5.683-11.955-12.668-11.955S59.831,918.1,59.831,924.688a1.891,1.891,0,0,0,1.628,1.925,19.994,19.994,0,0,0,5.54.517c0.8,0,1.641-.011,2.529-0.022,0.958-.013,1.949-0.026,2.971-0.026h0Zm-0.122-.176a0.921,0.921,0,0,1-.583-0.208l-3.251-2.656a0.9,0.9,0,0,1-.282-1l2.044-5.8L69.1,915.167a0.9,0.9,0,0,1-.084-0.71,0.91,0.91,0,0,1,.462-0.55,8.061,8.061,0,0,1,3.021-.858,6.517,6.517,0,0,1,2.856.887,0.911,0.911,0,0,1,.419.557,0.9,0.9,0,0,1-.1.686l-1.236,2.051,2.288,5.779a0.9,0.9,0,0,1-.294,1.049l-3.5,2.66a0.924,0.924,0,0,1-.558.188h0Zm-2.177-3.86,2.2,1.795,2.372-1.8-2.2-5.559a0.9,0.9,0,0,1,.066-0.795l0.951-1.578a3.281,3.281,0,0,0-1.087-.243,4.267,4.267,0,0,0-1.3.286l0.9,1.546a0.9,0.9,0,0,1,.071.751l-1.972,5.6h0Z" transform="translate(-58 -894)"/>
</svg>
