<?xml version="1.0" standalone="no"?><!DOCTYPE svg PUBLIC "-//W3C//DTD SVG 1.1//EN" "http://www.w3.org/Graphics/SVG/1.1/DTD/svg11.dtd"><svg t="1482921235336" class="icon" style="" viewBox="0 0 1024 1024" version="1.1" xmlns="http://www.w3.org/2000/svg" p-id="1958" xmlns:xlink="http://www.w3.org/1999/xlink" width="200" height="200"><defs><style type="text/css"></style></defs><path d="M57.45152 292.81792s2.36032-0.26112 3.67104 1.31072 2.88256 23.59296 8.6528 29.62432c5.76512 6.03136 29.10208 2.62144 29.10208 10.48576 0 6.29248-21.6832 6.96832-29.02528 12.99968s-3.14368 31.45728-12.1344 30.52032c-7.04-0.73728-2.0992-20.97152-10.74688-29.10208-8.6528-8.12544-29.62432-6.5536-29.62432-13.89568s21.49888-2.88256 28.83584-11.27424c7.33696-8.38656 4.18816-30.6688 11.26912-30.6688z" fill="#FFBC5A" p-id="1959"></path><path d="M844.9536 115.05152s1.59232-0.1792 2.47808 0.88576c0.88576 1.05984 1.9456 15.92832 5.84192 19.99872 3.8912 4.0704 19.64544 1.77152 19.64544 7.08096 0 4.2496-14.63808 4.70528-19.59424 8.77568-4.95616 4.0704-2.1248 21.23776-8.192 20.60288-4.75136-0.49664-1.41824-14.1568-7.25504-19.64544-5.84192-5.48864-19.99872-4.42368-19.99872-9.37984 0-4.95616 14.51008-1.9456 19.46624-7.60832 4.95616-5.66784 2.83136-20.7104 7.60832-20.7104z" fill="#E94151" p-id="1960"></path><path d="M967.51104 387.58912s2.39616-0.26624 3.72736 1.3312c1.3312 1.59744 2.92864 23.9616 8.78592 30.08512 5.85728 6.12352 29.55264 2.6624 29.55264 10.6496 0 6.38976-22.02112 7.07584-29.47584 13.19936-7.45472 6.12352-3.19488 31.9488-12.32384 30.99648-7.14752-0.74752-2.12992-21.2992-10.91584-29.55264s-30.08512-6.656-30.08512-14.11072 21.83168-2.92864 29.2864-11.44832c7.45472-8.51968 4.25984-31.15008 11.44832-31.15008z" fill="#FF0000" p-id="1961"></path><path d="M179.45088 115.04128m-24.77056 0a24.77056 24.77056 0 1 0 49.54112 0 24.77056 24.77056 0 1 0-49.54112 0Z" fill="#FFEB00" p-id="1962"></path><path d="M845.39904 335.28832m-24.43776 0a24.43776 24.43776 0 1 0 48.87552 0 24.43776 24.43776 0 1 0-48.87552 0Z" fill="#FFEB00" p-id="1963"></path><path d="M167.3984 320.5376a313.53344 170.3168 0 1 0 627.06688 0 313.53344 170.3168 0 1 0-627.06688 0Z" fill="#DB1919" p-id="1964"></path><path d="M652.3392 349.75744m-113.79712 0a113.79712 113.79712 0 1 0 227.59424 0 113.79712 113.79712 0 1 0-227.59424 0Z" fill="#F4AE51" p-id="1965"></path><path d="M652.3392 349.75744m-95.2832 0a95.2832 95.2832 0 1 0 190.5664 0 95.2832 95.2832 0 1 0-190.5664 0Z" fill="#F4E576" p-id="1966"></path><path d="M690.18624 362.30144h-28.43648v-19.80928h28.43648a9.41056 9.41056 0 0 0 0-18.82112h-16.29696l10.31168-17.85856a9.41056 9.41056 0 0 0-16.29696-9.40544l-15.55968 26.9568-15.55968-26.9568a9.41056 9.41056 0 0 0-16.29696 9.40544l10.31168 17.85856h-16.29696a9.41056 9.41056 0 0 0 0 18.82112h28.43648v19.80928h-28.43648a9.41056 9.41056 0 0 0 0 18.82112h28.43648v17.27488a9.41056 9.41056 0 0 0 18.82112 0v-17.27488h28.43648a9.41056 9.41056 0 1 0-0.01024-18.82112z" fill="#F4AE51" p-id="1967"></path><path d="M309.51936 349.75744m-113.79712 0a113.79712 113.79712 0 1 0 227.59424 0 113.79712 113.79712 0 1 0-227.59424 0Z" fill="#F4AE51" p-id="1968"></path><path d="M309.51936 349.75744m-95.2832 0a95.2832 95.2832 0 1 0 190.5664 0 95.2832 95.2832 0 1 0-190.5664 0Z" fill="#F4E576" p-id="1969"></path><path d="M347.36128 362.30144H318.9248v-19.80928h28.43648a9.41056 9.41056 0 0 0 0-18.82112h-16.29696l10.31168-17.85856a9.41056 9.41056 0 0 0-16.29696-9.40544l-15.55968 26.9568-15.55968-26.9568a9.41056 9.41056 0 0 0-16.29696 9.40544l10.31168 17.85856h-16.29696a9.41056 9.41056 0 0 0 0 18.82112h28.43648v19.80928h-28.43648a9.41056 9.41056 0 0 0 0 18.82112h28.43648v17.27488a9.41056 9.41056 0 0 0 18.82112 0v-17.27488h28.43648a9.41056 9.41056 0 1 0-0.01024-18.82112z" fill="#F4AE51" p-id="1970"></path><path d="M319.104 301.76768a161.82272 161.78688 0 1 0 323.64544 0 161.82272 161.78688 0 1 0-323.64544 0Z" fill="#FFBC5A" p-id="1971"></path><path d="M480.93184 301.76768m-135.45984 0a135.45984 135.45984 0 1 0 270.91968 0 135.45984 135.45984 0 1 0-270.91968 0Z" fill="#FFF48D" p-id="1972"></path><path d="M534.7328 319.60576h-40.42752v-28.16h40.42752a13.37344 13.37344 0 0 0 0-26.75712h-23.168l14.65856-25.39008a13.38368 13.38368 0 0 0-23.168-13.37856l-22.12352 38.3232-22.12352-38.3232a13.37344 13.37344 0 1 0-23.168 13.37856l14.65856 25.39008h-23.168a13.37344 13.37344 0 0 0 0 26.75712h40.42752v28.16h-40.42752a13.37344 13.37344 0 0 0 0 26.752h40.42752v24.56064a13.37856 13.37856 0 0 0 26.75712 0v-24.56064h40.42752a13.37344 13.37344 0 1 0-0.01024-26.752z" fill="#FFBC5A" p-id="1973"></path><path d="M480.93184 383.24224c-127.5904 0-241.01888-28.38016-313.53344-72.4224v557.92128c0 35.15904 28.50304 63.66208 63.66208 63.66208h499.74784c35.15904 0 63.66208-28.50304 63.66208-63.66208V310.82496c-72.51968 44.03712-185.95328 72.41728-313.53856 72.41728z" fill="#FF4545" p-id="1974"></path><path d="M638.23872 775.45472a38.0928 38.0928 0 0 1-38.0928 38.0928H361.71264a38.0928 38.0928 0 0 1-38.0928-38.0928v-238.43328a38.0928 38.0928 0 0 1 38.0928-38.0928h238.43328a38.0928 38.0928 0 0 1 38.0928 38.0928v238.43328z" fill="#FFFFFF" p-id="1975"></path><path d="M361.06752 648.06912h41.16992v41.16992h-41.16992z m0 79.3344h122.8032v41.16992H361.06752z m-0.3328-183.50592h53.12512v41.16992H360.73472z m83.67104 0h156.71808v41.16992H444.40576z" fill="#FFBC5A" p-id="1976"></path><path d="M360.73472 583.0912h41.83552v41.16992h-41.83552z" fill="#FFBC5A" p-id="1977"></path><path d="M402.57024 617.31328h41.83552v41.16992h-41.83552z m119.17312 110.09024h41.16992v41.16992h-41.16992z m37.54496-48.3328h41.83552v41.16992h-41.83552z m-33.58208-72.38656h75.4176v41.16992h-75.4176zM444.12416 658.4832h41.83552v41.16992h-41.83552z" fill="#FFBC5A" p-id="1978"></path><path d="M483.87072 583.0912h41.83552v145.05984h-41.83552z" fill="#FFBC5A" p-id="1979"></path></svg>