<svg id="图层_1" data-name="图层 1" xmlns="http://www.w3.org/2000/svg" viewBox="0 0 37 37"><defs><style>.cls-1{fill:#fff;}</style></defs><title>nav_icon_person_default</title><path class="cls-1" d="M11.74,10.25C11.13,10,9.45,9.52,9.25,8.74c-0.32-1.23.89-2.17,1.42-3.13A9.54,9.54,0,0,0,11.8,2.05C12.13-2.09,9.63-4.52,6-4.1A4.85,4.85,0,0,0,1.71.72,8.84,8.84,0,0,0,3.49,6.63a2.52,2.52,0,0,1,.83,1.75c-0.08.87-1,1.12-1.66,1.39a18.88,18.88,0,0,0-2,1c-1.37.77-2.87,1.69-3.2,3-0.75,2.8,1.78,3.65,3.86,4a30.7,30.7,0,0,0,5.46.36c3,0,8.39-.12,9.26-2.41a3.87,3.87,0,0,0,0-2.11C15.47,12,13.29,10.94,11.74,10.25Z" transform="translate(11.77 11.5)"/><path class="cls-1" d="M6.73,25.5A18.5,18.5,0,1,1,25.23,7,18.52,18.52,0,0,1,6.73,25.5Zm0-36A17.5,17.5,0,1,0,24.23,7,17.52,17.52,0,0,0,6.73-10.5Z" transform="translate(11.77 11.5)"/></svg>