<svg id="图层_1" data-name="图层 1" xmlns="http://www.w3.org/2000/svg" viewBox="0 0 12.98 13.96"><defs><style>.cls-1{fill:#fff;}</style></defs><title>nav_icon_dynamic_default</title><path class="cls-1" d="M7,13.62A6.45,6.45,0,0,1,.51,7.22,6.45,6.45,0,0,1,7,.82a9,9,0,0,1,3,.77L9.44,0.2A0.39,0.39,0,0,1,9.68-.3h0a0.4,0.4,0,0,1,.51.23l0.86,2.34a0.39,0.39,0,0,1-.24.5h0L8.69,4a0.4,0.4,0,0,1-.54-0.14l0,0a0.39,0.39,0,0,1,.14-0.53l1.5-.85-0.11,0A8.13,8.13,0,0,0,7,1.67,5.59,5.59,0,0,0,1.38,7.22a5.62,5.62,0,0,0,11.25,0,5.73,5.73,0,0,0-.09-0.94A0.58,0.58,0,0,1,12.8,5.7l0.09,0a0.28,0.28,0,0,1,.43.19,7.66,7.66,0,0,1,.17,1.38A6.45,6.45,0,0,1,7,13.62Zm2.16-3L7,9.47,4.8,10.57,5.25,8.18,3.5,6.47l2.44-.32L7.06,4,8.12,6.17l2.43,0.38L8.77,8.22ZM8.38,9.54L7,8.8l-1.4.7L5.89,8,4.78,6.9l1.55-.21L7,5.31,7.72,6.71,9.27,6.95,8.13,8Z" transform="translate(-0.51 0.34)"/></svg>