<svg id="图层_1" data-name="图层 1" xmlns="http://www.w3.org/2000/svg" viewBox="0 0 36 34.2"><defs><style>.cls-1{fill:#ef7b1b;fill-rule:evenodd;}</style></defs><title>01关于</title><path class="cls-1" d="M-2.3,30.84v1.61h36V30.84h-36Zm14.45-20.3-0.62.25a10.68,10.68,0,0,0-3.41,2.4,11.22,11.22,0,0,0-2.3,3.56A11.58,11.58,0,0,0,5,21.12a0.83,0.83,0,1,0,1.66,0,9.63,9.63,0,0,1,2.66-6.7,8.83,8.83,0,0,1,6.06-2.77h0.72a8.83,8.83,0,0,1,6.06,2.77,9.63,9.63,0,0,1,2.66,6.7,0.83,0.83,0,1,0,1.66,0,11.58,11.58,0,0,0-.84-4.37,11.22,11.22,0,0,0-2.3-3.56,10.68,10.68,0,0,0-3.41-2.4l-0.62-.25A6.79,6.79,0,0,0,22.12,5,6.58,6.58,0,0,0,15.7-1.75,6.58,6.58,0,0,0,9.28,5,6.79,6.79,0,0,0,12.14,10.54ZM15.7,0a4.88,4.88,0,0,1,4.76,5,4.89,4.89,0,0,1-4.42,5H15.36a4.89,4.89,0,0,1-4.42-5A4.87,4.87,0,0,1,15.7,0ZM0.4,18.55a0.85,0.85,0,0,0,.83-0.87A7.51,7.51,0,0,1,3.3,12.45,6.88,6.88,0,0,1,8,10.3H8.3a0.85,0.85,0,0,0,.83-0.87h0A0.85,0.85,0,0,0,8.3,8.55H8A3.73,3.73,0,0,1,4.67,4.78,3.72,3.72,0,0,1,8.3,1,0.85,0.85,0,0,0,9.13.11,0.85,0.85,0,0,0,8.3-.75,5.42,5.42,0,0,0,3,4.78a5.61,5.61,0,0,0,2.1,4.41,8.69,8.69,0,0,0-3,2A9.27,9.27,0,0,0-.43,17.68,0.85,0.85,0,0,0,.4,18.55ZM23.09,10.3h0.29a6.88,6.88,0,0,1,4.71,2.16,7.51,7.51,0,0,1,2.07,5.22,0.83,0.83,0,1,0,1.66,0,9.27,9.27,0,0,0-2.56-6.45,8.69,8.69,0,0,0-3-2,5.61,5.61,0,0,0,2.1-4.41A5.42,5.42,0,0,0,23.09-.75a0.85,0.85,0,0,0-.83.87,0.85,0.85,0,0,0,.83.87,3.72,3.72,0,0,1,3.63,3.79,3.73,3.73,0,0,1-3.36,3.78H23.09a0.85,0.85,0,0,0-.83.87h0A0.85,0.85,0,0,0,23.09,10.3Z" transform="translate(2.3 1.75)"/></svg>