<svg id="图层_1" data-name="图层 1" xmlns="http://www.w3.org/2000/svg" viewBox="0 0 20 20"><defs><style>.cls-1,.cls-2{fill:#e4e4e4;}.cls-2{fill-rule:evenodd;}</style></defs><title>01关于</title><polygon class="cls-1" points="9.93 11.86 9.93 11.86 9.93 11.86 9.93 11.86"/><path class="cls-1" d="M19.12,5.82a4,4,0,0,0-3.17-1.74,4,4,0,0,0-3.17,1.74A7,7,0,0,0,11.46,10a7,7,0,0,0,1.31,4.19,4,4,0,0,0,3.17,1.74,4,4,0,0,0,3.17-1.74A7,7,0,0,0,20.43,10,7,7,0,0,0,19.12,5.82Zm-3.17,8.52c-1.8,0-3.27-1.94-3.27-4.32s1.47-4.32,3.27-4.32S19.22,7.62,19.22,10,17.75,14.33,15.95,14.33Z" transform="translate(-6.02 -4.08)"/><path class="cls-2" d="M22.05,24.08a0.73,0.73,0,0,1-.61-0.8,9.23,9.23,0,0,0-.5-3,0.92,0.92,0,0,1,.3-1.06,0.49,0.49,0,0,1,.47,0,0.67,0.67,0,0,1,.33.41,11.28,11.28,0,0,1,.6,3.68,0.73,0.73,0,0,1-.61.8h0Z" transform="translate(-6.02 -4.08)"/><path class="cls-2" d="M9.87,24.08a0.73,0.73,0,0,1-.61-0.8,11.3,11.3,0,0,1,.53-3.45A9.42,9.42,0,0,1,11.22,17a6.93,6.93,0,0,1,2.13-1.9,5.3,5.3,0,0,1,2.61-.7,5.48,5.48,0,0,1,3.28,1.13,1,1,0,0,1,.23,1.09,0.64,0.64,0,0,1-.36.38,0.49,0.49,0,0,1-.47-0.07A4.49,4.49,0,0,0,16,16c-3,0-5.49,3.25-5.49,7.25a0.72,0.72,0,0,1-.61.8h0Z" transform="translate(-6.02 -4.08)"/><path class="cls-2" d="M11.39,15.57c-2,0-3.65-2.16-3.65-4.82s1.64-4.82,3.65-4.82V7.54C10,7.54,9,9,9,10.75S10,14,11.39,14v1.61h0Z" transform="translate(-6.02 -4.08)"/><path class="cls-2" d="M6.62,21.94A0.73,0.73,0,0,1,6,21.14a8.35,8.35,0,0,1,1.58-5A4.79,4.79,0,0,1,11.4,14a0.73,0.73,0,0,1,.61.8,0.73,0.73,0,0,1-.61.8c-2.3,0-4.16,2.47-4.16,5.5a0.73,0.73,0,0,1-.61.8h0Z" transform="translate(-6.02 -4.08)"/><path class="cls-2" d="M20.64,15.57V14c1.34,0,2.43-1.44,2.43-3.21S22,7.54,20.64,7.54V5.94c2,0,3.64,2.16,3.64,4.82s-1.63,4.82-3.64,4.82h0Z" transform="translate(-6.02 -4.08)"/><path class="cls-2" d="M25.41,21.94a0.73,0.73,0,0,1-.61-0.8c0-3-1.87-5.5-4.16-5.5a0.73,0.73,0,0,1-.61-0.8,0.73,0.73,0,0,1,.61-0.8,4.78,4.78,0,0,1,3.8,2.08,8.36,8.36,0,0,1,1.58,5,0.73,0.73,0,0,1-.61.8h0Z" transform="translate(-6.02 -4.08)"/></svg>