<svg id="图层_1" data-name="图层 1" xmlns="http://www.w3.org/2000/svg" viewBox="0 0 20 21.02"><defs><style>.cls-1{fill:#e5e5e4;fill-rule:evenodd;}</style></defs><title>02动态</title><path class="cls-1" d="M17.42,14.92l-1.64-3.29-1.72,3.26-3.76.49L13,17.95l-0.68,3.6,3.37-1.66L19,21.62,18.42,18l2.74-2.52-3.74-.57h0ZM17.82,20l-2.13-1.11-2.15,1.06L14,17.65,12.27,16l2.39-.31,1.09-2.08,1,2.1,2.38,0.36-1.75,1.61L17.82,20h0Z" transform="translate(-5.7 -5.11)"/><path class="cls-1" d="M25.43,14.42a0.43,0.43,0,0,0-.66-0.29l-0.14.07a0.87,0.87,0,0,0-.42.87,8.39,8.39,0,0,1,.15,1.42,8.52,8.52,0,0,1-8.67,8.35A8.52,8.52,0,0,1,7,16.49a8.52,8.52,0,0,1,8.67-8.35,12.76,12.76,0,0,1,4.11,1.07,0.76,0.76,0,0,0,.16,0l-2.31,1.29a0.58,0.58,0,0,0-.22.8l0,0a0.63,0.63,0,0,0,.83.22L21.56,9.8h0l0.05,0A0.58,0.58,0,0,0,22,9L20.66,5.5a0.62,0.62,0,0,0-.78-0.35l-0.05,0a0.58,0.58,0,0,0-.36.76L20.25,8a14.09,14.09,0,0,0-4.56-1.17,9.84,9.84,0,0,0-10,9.64,9.84,9.84,0,0,0,10,9.64,9.84,9.84,0,0,0,10-9.64,11.44,11.44,0,0,0-.27-2.07h0Z" transform="translate(-5.7 -5.11)"/></svg>