<svg id="图层_1" data-name="图层 1" xmlns="http://www.w3.org/2000/svg" viewBox="0 0 21 21.01"><defs><style>.cls-1{fill:none;stroke:#e5e5e4;stroke-miterlimit:10;}</style></defs><title>04产品</title><path class="cls-1" d="M13.24,7.18H6.53A0.83,0.83,0,0,0,5.7,8v6.71a0.83,0.83,0,0,0,.84.84h6.71a0.83,0.83,0,0,0,.84-0.84V8A0.83,0.83,0,0,0,13.24,7.18Zm0,10.06H6.53a0.83,0.83,0,0,0-.84.84v6.71a0.83,0.83,0,0,0,.84.84h6.71a0.83,0.83,0,0,0,.84-0.84V18.08A0.83,0.83,0,0,0,13.24,17.24Zm12.2-6.63L20.72,5.87a0.83,0.83,0,0,0-1.19,0L14.78,10.6a0.83,0.83,0,0,0,0,1.19l4.73,4.75a0.83,0.83,0,0,0,1.19,0l4.74-4.75A0.81,0.81,0,0,0,25.44,10.62ZM23.3,17.24H16.59a0.83,0.83,0,0,0-.84.84v6.71a0.83,0.83,0,0,0,.84.84H23.3a0.83,0.83,0,0,0,.84-0.84V18.08A0.83,0.83,0,0,0,23.3,17.24Z" transform="translate(-5.2 -5.12)"/></svg>