<svg id="图层_1" data-name="图层 1" xmlns="http://www.w3.org/2000/svg" viewBox="0 0 20 20"><defs><style>.cls-1{fill:#e5e5e4;fill-rule:evenodd;}</style></defs><title>03首页</title><path class="cls-1" d="M25.55,15.78L15.7,5.62,5.85,15.75a0.56,0.56,0,0,0,0,.74,0.45,0.45,0,0,0,.67,0l9.2-9.45,9.2,9.48a0.45,0.45,0,0,0,.67,0,0.56,0.56,0,0,0,0-.74h0Zm-3,.21a0.5,0.5,0,0,0-.48.53v8.06H18.24V19H13.15v5.61H9.33V16.51a0.48,0.48,0,1,0-1,0v9.11H14.1V20h3.18v5.61H23V16.51A0.5,0.5,0,0,0,22.54,16h0ZM19.2,8.45h2.86v2.8a0.48,0.48,0,1,0,1,0V7.4H19.2a0.53,0.53,0,0,0,0,1.05h0Z" transform="translate(-5.7 -5.62)"/></svg>