<svg id="图层_1" data-name="图层 1" xmlns="http://www.w3.org/2000/svg" viewBox="0 0 36 34.12"><defs><style>.cls-1{fill:#ef7b1b;fill-rule:evenodd;}</style></defs><title>03首页</title><path class="cls-1" d="M-2.31,30.9v1.5h36V30.9h-36Zm22.87-29h4.13V5.45a0.69,0.69,0,0,0,1.38,0V0.54H20.56a0.68,0.68,0,0,0-.69.67A0.68,0.68,0,0,0,20.56,1.88Zm5.51,21.9V12.16a0.69,0.69,0,0,0-1.38,0V22.43H19.18V15.28H11.83v7.15H6.32V12.16a0.69,0.69,0,0,0-1.38,0V23.77h8.27V16.62H17.8v7.15h8.27ZM2.23,12.16l13.27-12L28.78,12.2a0.7,0.7,0,0,0,1,0,0.66,0.66,0,0,0,0-.95L15.51-1.72,1.29,11.18a0.66,0.66,0,0,0,0,.95A0.7,0.7,0,0,0,2.23,12.16Z" transform="translate(2.31 1.72)"/></svg>