<svg id="图层_1" data-name="图层 1" xmlns="http://www.w3.org/2000/svg" viewBox="0 0 36 34.37"><defs><style>.cls-1,.cls-3{fill:#ef7b1b;}.cls-2{fill:none;stroke:#ef7b1b;stroke-miterlimit:10;stroke-width:0.5px;}.cls-3{fill-rule:evenodd;}</style></defs><title>05优惠</title><path class="cls-1" d="M14.59,20.81a16.65,16.65,0,0,0-4.31-5.18C9.88,15.32,9.47,15,9,14.69,6.68,13,4,11,4,6.85,4.07,2,6.3-.57,8.51-0.95s4.55,1.48,5.7,4.76l0.34,1,0.34-1C16.12,0.29,19.11-.79,21.43,0,24.1,0.85,26.09,4,24.54,9.22l0.69,0.21C26.91,3.82,24.55.24,21.65-.72a5.82,5.82,0,0,0-7.09,3.44c-1.35-3.1-3.71-4.8-6.17-4.38s-5,3.22-5.07,8.51c0,4.52,2.92,6.69,5.28,8.43,0.43,0.32.84,0.62,1.22,0.92,2.42,1.94,4.13,4.57,4.39,5.65l0.37,1.56,0.33-1.57c0.2-1,3.32-5.17,5.65-7.18L20.1,14.1A31.3,31.3,0,0,0,14.59,20.81Zm8.78-9.87V7.73H22.26v3.21h-3.2v1h3.2V15.2h1.11V12h3.2v-1h-3.2Z" transform="translate(2.31 1.97)"/><path class="cls-2" d="M14.59,20.81a16.65,16.65,0,0,0-4.31-5.18C9.88,15.32,9.47,15,9,14.69,6.68,13,4,11,4,6.85,4.07,2,6.3-.57,8.51-0.95s4.55,1.48,5.7,4.76l0.34,1,0.34-1C16.12,0.29,19.11-.79,21.43,0,24.1,0.85,26.09,4,24.54,9.22l0.69,0.21C26.91,3.82,24.55.24,21.65-.72a5.82,5.82,0,0,0-7.09,3.44c-1.35-3.1-3.71-4.8-6.17-4.38s-5,3.22-5.07,8.51c0,4.52,2.92,6.69,5.28,8.43,0.43,0.32.84,0.62,1.22,0.92,2.42,1.94,4.13,4.57,4.39,5.65l0.37,1.56,0.33-1.57c0.2-1,3.32-5.17,5.65-7.18L20.1,14.1A31.3,31.3,0,0,0,14.59,20.81Zm8.78-9.87V7.73H22.26v3.21h-3.2v1h3.2V15.2h1.11V12h3.2v-1h-3.2Z" transform="translate(2.31 1.97)"/><path class="cls-3" d="M-2.31,32.4V30.9h36v1.5h-36Z" transform="translate(2.31 1.97)"/></svg>