<svg id="图层_1" data-name="图层 1" xmlns="http://www.w3.org/2000/svg" viewBox="0 0 37 37"><defs><style>.cls-1,.cls-2{fill:#fff;}.cls-1{fill-rule:evenodd;}</style></defs><title>nav_icon_mail_default</title><path class="cls-1" d="M23.66,3.52l-7.27,6,7.26,6.76a1.24,1.24,0,0,0,.08-0.41v-12A1.23,1.23,0,0,0,23.66,3.52Zm-13,6L12.59,11,14.5,9.5l1-.76,7.3-6.05a1.35,1.35,0,0,0-.38-0.06H2.78a1.35,1.35,0,0,0-.38.06l7.3,6.06Zm1.91,3L9.76,10.32,2.42,17.14a1.36,1.36,0,0,0,.36.05H22.4a1.35,1.35,0,0,0,.36-0.05l-7.33-6.82Zm-11.07-9a1.23,1.23,0,0,0-.07.39v12a1.23,1.23,0,0,0,.08.41L8.79,9.56Z" transform="translate(5.91 9.02)"/><path class="cls-2" d="M12.59,28a18.5,18.5,0,1,1,18.5-18.5A18.52,18.52,0,0,1,12.59,28Zm0-36a17.5,17.5,0,1,0,17.5,17.5A17.52,17.52,0,0,0,12.59-8Z" transform="translate(5.91 9.02)"/></svg>