<svg id="图层_1" data-name="图层 1" xmlns="http://www.w3.org/2000/svg" viewBox="0 0 13.02 14"><defs><style>.cls-1{fill:#e12727;}</style></defs><title>person_icon_exit_default</title><path class="cls-1" d="M11.47,1.24a6.56,6.56,0,0,1,1.16,1.07,7,7,0,0,1,.87,1.29,6.4,6.4,0,0,1,.55,1.46,6.56,6.56,0,0,1,.19,1.57,6.42,6.42,0,0,1-.52,2.57,6.72,6.72,0,0,1-1.4,2.09,6.64,6.64,0,0,1-2.07,1.41,6.4,6.4,0,0,1-5.06,0,6.73,6.73,0,0,1-2.07-1.41A6.56,6.56,0,0,1,1.23,6.63,6.47,6.47,0,0,1,1.41,5.1a6.83,6.83,0,0,1,.52-1.43,6.29,6.29,0,0,1,.83-1.26A7.1,7.1,0,0,1,3.87,1.35a0.89,0.89,0,0,1,.69-0.18,0.91,0.91,0,0,1,.6.37,0.88,0.88,0,0,1,.17.69A0.93,0.93,0,0,1,5,2.85a4.55,4.55,0,0,0-1.4,1.66,4.71,4.71,0,0,0-.49,2.12,4.65,4.65,0,0,0,.36,1.83,4.72,4.72,0,0,0,1,1.5,4.77,4.77,0,0,0,1.48,1,4.56,4.56,0,0,0,3.62,0A4.77,4.77,0,0,0,11,10a4.83,4.83,0,0,0,1-1.5,4.57,4.57,0,0,0,.37-1.83,4.69,4.69,0,0,0-.52-2.17,4.57,4.57,0,0,0-1.47-1.68A0.89,0.89,0,0,1,10,2.17a0.94,0.94,0,0,1,.15-0.71,0.89,0.89,0,0,1,.6-0.37,0.91,0.91,0,0,1,.7.15h0ZM7.74,6.67A0.88,0.88,0,0,1,7.09,6.4a0.9,0.9,0,0,1-.27-0.65V0.16A0.92,0.92,0,0,1,7.09-.51,0.87,0.87,0,0,1,7.74-.79a0.88,0.88,0,0,1,.66.28,0.92,0.92,0,0,1,.27.66V5.74a0.92,0.92,0,0,1-.93.93h0Z" transform="translate(-1.23 0.79)"/></svg>