<svg xmlns="http://www.w3.org/2000/svg" width="30" height="35" viewBox="0 0 30 35">
  <defs>
    <style>
      .cls-1 {
        fill: #f5f2f2;
        fill-rule: evenodd;
      }
    </style>
  </defs>
  <path id="矩形_27" data-name="矩形 27" class="cls-1" d="M85.13,116H62.869A3.866,3.866,0,0,0,59,119.854v27.687a3.476,3.476,0,0,0,5.179,3.013L74,145.06l9.826,5.5A3.476,3.476,0,0,0,89,147.541V119.854A3.867,3.867,0,0,0,85.13,116h0Zm2.2,31.542a1.807,1.807,0,0,1-2.694,1.574L74,143.163l-10.636,5.95a1.806,1.806,0,0,1-2.7-1.571V119.854a2.205,2.205,0,0,1,2.2-2.2H85.131a2.2,2.2,0,0,1,2.2,2.2v27.688h0ZM66.5,125.085v1.652h15v-1.652h-15Zm0,9.087h15v-1.653h-15v1.653h0Z" transform="translate(-59 -116)"/>
</svg>
