<svg id="图层_1" data-name="图层 1" xmlns="http://www.w3.org/2000/svg" viewBox="0 0 260 70.24"><defs><style>.cls-1,.cls-3{fill:#e5e5e4;}.cls-2,.cls-5,.cls-7{fill:none;stroke-miterlimit:10;}.cls-2{stroke:#e5e5e4;}.cls-3,.cls-4{fill-rule:evenodd;}.cls-4,.cls-6{fill:#ef7b1b;}.cls-5,.cls-7{stroke:#ef7b1b;}.cls-7{stroke-width:0.5px;}</style></defs><title>05图标集合</title><path class="cls-1" d="M30.42,12.7a6.67,6.67,0,0,0-2.11-1.63l-0.39-.17a4.68,4.68,0,0,0,1.79-3.74,4.28,4.28,0,0,0-4-4.53,4.27,4.27,0,0,0-4,4.49,4.7,4.7,0,0,0,1.76,3.77L23.13,11A6.64,6.64,0,0,0,21,12.64,7.62,7.62,0,0,0,19.57,15,8.35,8.35,0,0,0,19,18a0.52,0.52,0,1,0,1,0,6.77,6.77,0,0,1,1.67-4.5,5.29,5.29,0,0,1,3.76-1.84h0.44a5.31,5.31,0,0,1,3.75,1.88A6.79,6.79,0,0,1,31.31,18a0.52,0.52,0,1,0,1,0,8.36,8.36,0,0,0-.51-2.94A7.66,7.66,0,0,0,30.42,12.7Zm-4.49-2.23H25.51a3.21,3.21,0,0,1-2.73-3.35,3.16,3.16,0,0,1,3-3.33,3.18,3.18,0,0,1,2.94,3.36A3.2,3.2,0,0,1,25.93,10.47Zm-4.79.23a0.55,0.55,0,0,0,.52-0.58h0a0.55,0.55,0,0,0-.51-0.59H21A2.45,2.45,0,0,1,18.9,7a2.41,2.41,0,0,1,2.26-2.54,0.55,0.55,0,0,0,.52-0.58,0.55,0.55,0,0,0-.51-0.59A3.52,3.52,0,0,0,17.87,7a3.91,3.91,0,0,0,1.29,3A5.38,5.38,0,0,0,17.3,11.3a6.52,6.52,0,0,0-1.61,4.33,0.52,0.52,0,1,0,1,0,5.28,5.28,0,0,1,1.3-3.5A4.13,4.13,0,0,1,21,10.69h0.18Zm13,0.7A5.41,5.41,0,0,0,32.29,10a3.89,3.89,0,0,0,1.31-3,3.53,3.53,0,0,0-3.26-3.74,0.55,0.55,0,0,0-.52.58,0.55,0.55,0,0,0,.51.59,2.42,2.42,0,0,1,2.24,2.56,2.44,2.44,0,0,1-2.1,2.53H30.31a0.55,0.55,0,0,0-.52.58h0a0.55,0.55,0,0,0,.51.59h0.18a4.14,4.14,0,0,1,2.92,1.47,5.29,5.29,0,0,1,1.27,3.52,0.52,0.52,0,1,0,1,0A6.54,6.54,0,0,0,34.13,11.4Z" transform="translate(-15.7 -0.11)"/><path class="cls-2" d="M128.24,12.24h-6.71a0.83,0.83,0,0,0-.84.84v6.71a0.83,0.83,0,0,0,.84.84h6.71a0.83,0.83,0,0,0,.84-0.84V13.08A0.83,0.83,0,0,0,128.24,12.24Zm0-10.06h-6.71a0.83,0.83,0,0,0-.84.84V9.73a0.83,0.83,0,0,0,.84.84h6.71a0.83,0.83,0,0,0,.84-0.84V3A0.83,0.83,0,0,0,128.24,2.18ZM138.3,12.24h-6.71a0.83,0.83,0,0,0-.84.84v6.71a0.83,0.83,0,0,0,.84.84h6.71a0.83,0.83,0,0,0,.84-0.84V13.08A0.83,0.83,0,0,0,138.3,12.24Zm2.15-6.63-4.73-4.75a0.83,0.83,0,0,0-1.19,0L129.78,5.6a0.83,0.83,0,0,0,0,1.19l4.73,4.75a0.83,0.83,0,0,0,1.19,0l4.74-4.75A0.81,0.81,0,0,0,140.44,5.62Z" transform="translate(-15.7 -0.11)"/><path class="cls-3" d="M105.55,10.78L95.7,0.62,85.85,10.75a0.56,0.56,0,0,0,0,.74,0.45,0.45,0,0,0,.67,0l9.2-9.45,9.2,9.48a0.45,0.45,0,0,0,.67,0,0.56,0.56,0,0,0,0-.74h0Zm-3,.21a0.5,0.5,0,0,0-.48.53v8.06H98.24V14H93.15v5.61H89.33V11.51a0.48,0.48,0,1,0-1,0v9.11H94.1V15h3.18v5.61H103V11.51a0.5,0.5,0,0,0-.48-0.53h0ZM99.2,3.45h2.86v2.8a0.48,0.48,0,1,0,1,0V2.4H99.2a0.5,0.5,0,0,0-.48.53,0.5,0.5,0,0,0,.48.53h0Z" transform="translate(-15.7 -0.11)"/><path class="cls-1" d="M165.39,20.62l-0.32-1.24a11.31,11.31,0,0,0-3.78-4.5c-0.33-.24-0.68-0.48-1-0.73-2-1.39-4.57-3.11-4.55-6.71,0-4.21,2.21-6.44,4.36-6.77s4.14,1,5.31,3.49a5.14,5.14,0,0,1,6.1-2.74C174,2.18,176,5,174.55,9.5L174,9.33c1.34-4.12-.38-6.67-2.68-7.36A4.59,4.59,0,0,0,165.65,5l-0.29.77L165.07,5c-1-2.61-2.92-4.1-4.91-3.79s-3.82,2.33-3.84,6.21c0,3.31,2.27,4.87,4.29,6.24,0.38,0.26.73,0.5,1.07,0.75a13.53,13.53,0,0,1,3.71,4.12,25.44,25.44,0,0,1,4.74-5.34l0.4,0.44c-2,1.6-4.69,5-4.86,5.72Z" transform="translate(-15.7 -0.11)"/><path class="cls-1" d="M175.7,11.54h-2.75V14.1h-1V11.54h-2.75V10.71H172V8.15h1v2.56h2.75v0.84Z" transform="translate(-15.7 -0.11)"/><path class="cls-3" d="M62.42,9.92L60.78,6.63,59.06,9.89l-3.76.49L58,12.95l-0.68,3.6,3.37-1.66L64,16.62,63.42,13l2.74-2.52-3.74-.57h0ZM62.82,15l-2.13-1.11-2.15,1.06L59,12.65,57.27,11l2.39-.31,1.09-2.08,1,2.1,2.38,0.36-1.75,1.61L62.82,15h0Z" transform="translate(-15.7 -0.11)"/><path class="cls-3" d="M70.43,9.42a0.43,0.43,0,0,0-.66-0.29l-0.14.07a0.87,0.87,0,0,0-.42.86,8.39,8.39,0,0,1,.15,1.42,8.67,8.67,0,0,1-17.33,0,8.52,8.52,0,0,1,8.67-8.35,12.76,12.76,0,0,1,4.11,1.07,0.76,0.76,0,0,0,.16,0L62.66,5.54a0.58,0.58,0,0,0-.22.8l0,0a0.63,0.63,0,0,0,.83.22L66.56,4.8h0l0.05,0A0.58,0.58,0,0,0,67,4L65.66,0.5A0.62,0.62,0,0,0,64.88.15l-0.05,0a0.58,0.58,0,0,0-.36.76L65.25,3a14.09,14.09,0,0,0-4.56-1.17,9.84,9.84,0,0,0-10,9.64,10,10,0,0,0,20,0,11.45,11.45,0,0,0-.27-2.07h0Z" transform="translate(-15.7 -0.11)"/><path class="cls-4" d="M70.69,68.63V70.3h40V68.63h-40ZM93.28,44.85l-2.46-5-2.58,5-5.64.74,4,3.93-1,5.49,5.06-2.54,5,2.65-0.89-5.51,4.11-3.85Zm0.6,7.73L90.69,50.9l-3.22,1.62L88.12,49l-2.57-2.51L89.14,46l1.64-3.17,1.57,3.2,3.58,0.55-2.62,2.45ZM90.69,62a14.88,14.88,0,0,0,15-14.71,17.76,17.76,0,0,0-.4-3.17,0.64,0.64,0,0,0-1-.44l-0.21.11a1.33,1.33,0,0,0-.63,1.32A13,13,0,1,1,90.69,34.5a18.89,18.89,0,0,1,6.17,1.64,1.13,1.13,0,0,0,.25.06l-3.46,2a0.89,0.89,0,0,0-.34,1.23l0,0.07a0.93,0.93,0,0,0,1.25.33L99.49,37h0l0.08,0a0.89,0.89,0,0,0,.55-1.15l-2-5.37A0.92,0.92,0,0,0,97,29.93l-0.08,0a0.89,0.89,0,0,0-.55,1.15l1.19,3.21a20.85,20.85,0,0,0-6.84-1.78A14.72,14.72,0,1,0,90.69,62Z" transform="translate(-15.7 -0.11)"/><path class="cls-4" d="M15.7,68.56v1.79h40V68.56h-40ZM31.75,46l-0.69.28A11.87,11.87,0,0,0,27.26,49a12.46,12.46,0,0,0-2.56,4,12.86,12.86,0,0,0-.94,4.85,0.92,0.92,0,1,0,1.85,0,10.7,10.7,0,0,1,3-7.45,9.81,9.81,0,0,1,6.73-3.08h0.8a9.81,9.81,0,0,1,6.73,3.08,10.7,10.7,0,0,1,3,7.45,0.92,0.92,0,1,0,1.85,0,12.86,12.86,0,0,0-.94-4.85,12.47,12.47,0,0,0-2.56-4,11.87,11.87,0,0,0-3.79-2.67L39.64,46a7.54,7.54,0,0,0,3.19-6.2,7.14,7.14,0,1,0-14.27,0A7.54,7.54,0,0,0,31.75,46ZM35.7,34.28a5.54,5.54,0,0,1,.37,11H35.32A5.54,5.54,0,0,1,35.7,34.28ZM18.7,54.9a0.94,0.94,0,0,0,.92-1,8.34,8.34,0,0,1,2.3-5.81,7.65,7.65,0,0,1,5.24-2.4h0.32a0.94,0.94,0,0,0,.92-1h0a0.94,0.94,0,0,0-.92-1h-0.3a4.23,4.23,0,0,1,.3-8.42,1,1,0,0,0,0-1.93A6,6,0,0,0,21.6,39.6a6.23,6.23,0,0,0,2.33,4.9,9.65,9.65,0,0,0-3.31,2.27,10.31,10.31,0,0,0-2.84,7.17A0.94,0.94,0,0,0,18.7,54.9Zm25.21-9.16h0.32a7.65,7.65,0,0,1,5.24,2.4,8.34,8.34,0,0,1,2.3,5.81,0.92,0.92,0,1,0,1.85,0,10.3,10.3,0,0,0-2.84-7.17,9.65,9.65,0,0,0-3.31-2.27,6.23,6.23,0,0,0,2.33-4.9,6,6,0,0,0-5.88-6.14,1,1,0,0,0,0,1.93,4.23,4.23,0,0,1,.3,8.42h-0.3a0.94,0.94,0,0,0-.92,1h0A0.94,0.94,0,0,0,43.91,45.74Z" transform="translate(-15.7 -0.11)"/><path class="cls-4" d="M125.69,68.63V70.3h40V68.63h-40Zm5-20.82,14.75-13.39,14.75,13.43a0.78,0.78,0,0,0,1.08,0,0.73,0.73,0,0,0,0-1.05L145.49,32.38,129.69,46.72a0.73,0.73,0,0,0,0,1.05A0.78,0.78,0,0,0,130.74,47.81ZM151.1,36.38h4.59v4a0.77,0.77,0,0,0,1.53,0V34.89H151.1A0.75,0.75,0,1,0,151.1,36.38Zm6.12,24.33V47.8a0.77,0.77,0,0,0-1.53,0V59.22h-6.12V51.28H141.4v7.94h-6.12V47.8a0.77,0.77,0,0,0-1.53,0V60.71h9.19V52.77H148v7.94h9.19Z" transform="translate(-15.7 -0.11)"/><path class="cls-5" d="M197,34.2h-9.64a1.19,1.19,0,0,0-1.2,1.21V45a1.19,1.19,0,0,0,1.2,1.21H197a1.19,1.19,0,0,0,1.2-1.21V35.4A1.19,1.19,0,0,0,197,34.2Zm0,14.46h-9.64a1.19,1.19,0,0,0-1.2,1.21v9.64a1.19,1.19,0,0,0,1.2,1.21H197a1.19,1.19,0,0,0,1.2-1.21V49.87A1.19,1.19,0,0,0,197,48.66Zm14.46,0h-9.64a1.19,1.19,0,0,0-1.2,1.21v9.64a1.19,1.19,0,0,0,1.2,1.21h9.64a1.19,1.19,0,0,0,1.2-1.21V49.87A1.19,1.19,0,0,0,211.42,48.66Zm3.08-9.52-6.8-6.82a1.19,1.19,0,0,0-1.71,0l-6.82,6.8a1.19,1.19,0,0,0,0,1.71l6.8,6.82a1.19,1.19,0,0,0,1.71,0l6.82-6.82A1.17,1.17,0,0,0,214.51,39.14Z" transform="translate(-15.7 -0.11)"/><path class="cls-4" d="M220.69,68.63V70.3h-40V68.63" transform="translate(-15.7 -0.11)"/><path class="cls-6" d="M254.46,57.42a18.49,18.49,0,0,0-4.79-5.76c-0.44-.35-0.89-0.68-1.38-1-2.61-1.92-5.57-4.1-5.54-8.71,0-5.41,2.51-8.25,5-8.67s5.06,1.64,6.34,5.29l0.38,1.08,0.38-1.08c1.37-3.92,4.69-5.11,7.26-4.27,3,1,5.19,4.53,3.46,10.27l0.76,0.23c1.87-6.23-.75-10.21-4-11.27-2.72-.89-6.16.18-7.88,3.82-1.5-3.44-4.12-5.33-6.85-4.87S242,36,241.95,41.91c0,5,3.24,7.43,5.87,9.36,0.48,0.35.93,0.68,1.35,1,2.69,2.15,4.59,5.08,4.88,6.27l0.41,1.73,0.36-1.74c0.22-1.06,3.69-5.74,6.27-8L260.59,50A34.78,34.78,0,0,0,254.46,57.42Zm9.76-11V42.89H263v3.57h-3.55v1.17H263v3.57h1.23V47.62h3.55V46.45h-3.55Z" transform="translate(-15.7 -0.11)"/><path class="cls-7" d="M254.46,57.42a18.49,18.49,0,0,0-4.79-5.76c-0.44-.35-0.89-0.68-1.38-1-2.61-1.92-5.57-4.1-5.54-8.71,0-5.41,2.51-8.25,5-8.67s5.06,1.64,6.34,5.29l0.38,1.08,0.38-1.08c1.37-3.92,4.69-5.11,7.26-4.27,3,1,5.19,4.53,3.46,10.27l0.76,0.23c1.87-6.23-.75-10.21-4-11.27-2.72-.89-6.16.18-7.88,3.82-1.5-3.44-4.12-5.33-6.85-4.87S242,36,241.95,41.91c0,5,3.24,7.43,5.87,9.36,0.48,0.35.93,0.68,1.35,1,2.69,2.15,4.59,5.08,4.88,6.27l0.41,1.73,0.36-1.74c0.22-1.06,3.69-5.74,6.27-8L260.59,50A34.78,34.78,0,0,0,254.46,57.42Zm9.76-11V42.89H263v3.57h-3.55v1.17H263v3.57h1.23V47.62h3.55V46.45h-3.55Z" transform="translate(-15.7 -0.11)"/><path class="cls-4" d="M235.69,70.3V68.63h40V70.3h-40Z" transform="translate(-15.7 -0.11)"/></svg>