<svg xmlns="http://www.w3.org/2000/svg" width="40" height="40" viewBox="0 0 40 40">
  <defs>
    <style>
      .cls-1 {
        fill: none;
        stroke: #707070;
        stroke-width: 2px;
        fill-rule: evenodd;
      }
    </style>
  </defs>
  <path id="矩形_15" data-name="矩形 15" class="cls-1" d="M542.511,1262.72l-9.013,9.01a1.572,1.572,0,0,1-2.262,0l-8.981-9.01a1.587,1.587,0,0,1,0-2.27l9.013-8.98a1.571,1.571,0,0,1,2.261,0l8.982,9.02a1.54,1.54,0,0,1,0,2.23h0Zm-23.186,26.29H506.586a1.585,1.585,0,0,1-1.593-1.6v-12.74a1.579,1.579,0,0,1,1.593-1.6h12.739a1.578,1.578,0,0,1,1.592,1.6v12.74a1.584,1.584,0,0,1-1.592,1.6h0Zm0-19.12H506.586a1.579,1.579,0,0,1-1.593-1.6v-12.74a1.585,1.585,0,0,1,1.593-1.6h12.739a1.584,1.584,0,0,1,1.592,1.6v12.74a1.578,1.578,0,0,1-1.592,1.6h0Zm6.37,3.18h12.739a1.579,1.579,0,0,1,1.593,1.6v12.74a1.585,1.585,0,0,1-1.593,1.6H525.7a1.585,1.585,0,0,1-1.593-1.6v-12.74a1.579,1.579,0,0,1,1.593-1.6h0Z" transform="translate(-504 -1250)"/>
</svg>
