<svg xmlns="http://www.w3.org/2000/svg" width="72" height="72.03" viewBox="0 0 72 72.03">
  <defs>
    <style>
      .cls-1 {
        fill: none;
        stroke: #a6601b;
        stroke-width: 3px;
        fill-rule: evenodd;
      }
    </style>
  </defs>
  <path id="矩形_15" data-name="矩形 15" class="cls-1" d="M558.112,1337.28l-16.366,16.37a2.857,2.857,0,0,1-4.106,0l-16.308-16.37a2.867,2.867,0,0,1,0-4.11l16.365-16.32a2.876,2.876,0,0,1,4.107,0l16.308,16.38a2.8,2.8,0,0,1,0,4.05h0Zm-42.1,47.73H492.879a2.861,2.861,0,0,1-2.891-2.89v-23.15a2.861,2.861,0,0,1,2.891-2.89h23.132a2.862,2.862,0,0,1,2.892,2.89v23.15a2.862,2.862,0,0,1-2.892,2.89h0Zm0-34.72H492.879a2.861,2.861,0,0,1-2.891-2.89v-23.14a2.87,2.87,0,0,1,2.891-2.9h23.132a2.87,2.87,0,0,1,2.892,2.9v23.14a2.862,2.862,0,0,1-2.892,2.89h0Zm11.566,5.79H550.71a2.861,2.861,0,0,1,2.891,2.89v23.15a2.862,2.862,0,0,1-2.891,2.89H527.577a2.861,2.861,0,0,1-2.891-2.89v-23.15a2.861,2.861,0,0,1,2.891-2.89h0Z" transform="translate(-488.5 -1314.47)"/>
</svg>
