<svg xmlns="http://www.w3.org/2000/svg" width="21" height="29" viewBox="0 0 21 29">
  <defs>
    <style>
      .cls-1 {
        fill: #ffaccd;
        fill-rule: evenodd;
      }
    </style>
  </defs>
  <path id="矩形_5" data-name="矩形 5" class="cls-1" d="M251.23,549.661V544.9a7.767,7.767,0,0,0-7.625-7.9c-0.053,0-.091,0-0.142,0s-0.1,0-.14,0a7.765,7.765,0,0,0-7.624,7.9v4.758H233V566h21V549.661h-2.77ZM245.884,563h-4.763l1.167-5.282a2.481,2.481,0,0,1-1.167-2.119,2.383,2.383,0,1,1,4.763,0,2.483,2.483,0,0,1-1.176,2.125Zm1.531-13.343h-7.9V544.9a3.884,3.884,0,0,1,3.81-3.946l0.186,0,0.1,0a3.885,3.885,0,0,1,3.81,3.946v4.759Z" transform="translate(-233 -537)"/>
</svg>
