<svg id="图层_1" data-name="图层 1" xmlns="http://www.w3.org/2000/svg" viewBox="0 0 20 14.7"><defs><style>.cls-1{fill:#e5e5e3;}</style></defs><title>01关于</title><path class="cls-1" d="M7.8,9l-0.38.16A6.62,6.62,0,0,0,5.3,10.67a7,7,0,0,0-1.43,2.21,7.18,7.18,0,0,0-.51,2.71,0.51,0.51,0,1,0,1,0h0A6,6,0,0,1,6,11.43,5.48,5.48,0,0,1,9.8,9.71h0.45A5.48,5.48,0,0,1,14,11.43a6,6,0,0,1,1.65,4.15,0.51,0.51,0,1,0,1,0h0a7.18,7.18,0,0,0-.52-2.71,7,7,0,0,0-1.43-2.21,6.62,6.62,0,0,0-2.11-1.49L12.24,9A4.21,4.21,0,0,0,14,5.59,4.08,4.08,0,0,0,10,1.4h0A4.08,4.08,0,0,0,6,5.58H6A4.21,4.21,0,0,0,7.8,9h0ZM10,2.49a3,3,0,0,1,3,3.1h0a3,3,0,0,1-2.74,3.1H9.79a3,3,0,0,1-2.74-3.1A3,3,0,0,1,10,2.49h0ZM0.52,14A0.53,0.53,0,0,0,1,13.45H1a4.66,4.66,0,0,1,1.28-3.24A4.27,4.27,0,0,1,5.23,8.88H5.41a0.53,0.53,0,0,0,.51-0.54h0a0.53,0.53,0,0,0-.51-0.55H5.23A2.31,2.31,0,0,1,3.16,5.45,2.31,2.31,0,0,1,5.41,3.11a0.53,0.53,0,0,0,.52-0.54h0A0.53,0.53,0,0,0,5.41,2,3.36,3.36,0,0,0,2.13,5.45a3.48,3.48,0,0,0,1.3,2.73A5.39,5.39,0,0,0,1.57,9.43a5.75,5.75,0,0,0-1.57,4A0.53,0.53,0,0,0,.51,14h0ZM14.59,8.88h0.18a4.27,4.27,0,0,1,2.92,1.34A4.66,4.66,0,0,1,19,13.45a0.51,0.51,0,0,0,1,0h0a5.75,5.75,0,0,0-1.59-4,5.39,5.39,0,0,0-1.86-1.24,3.48,3.48,0,0,0,1.3-2.73A3.36,3.36,0,0,0,14.59,2h0a0.53,0.53,0,0,0-.51.54h0a0.53,0.53,0,0,0,.51.54h0a2.31,2.31,0,0,1,2.25,2.35A2.31,2.31,0,0,1,14.75,7.8H14.59a0.53,0.53,0,0,0-.51.54h0a0.53,0.53,0,0,0,.51.54h0Z" transform="translate(0 -1.4)"/></svg>