<svg id="图层_1" data-name="图层 1" xmlns="http://www.w3.org/2000/svg" viewBox="0 0 30 28.75"><defs><style>.cls-1{fill:#ee7a1b;fill-rule:evenodd;}</style></defs><title>02动态</title><path class="cls-1" d="M-0.36,51.31v1.25h30V51.31h-30ZM16.57,34.46l-1.84-3.58L12.8,34.41l-4.23.53,3,2.8-0.77,3.9,3.79-1.81,3.75,1.88L17.7,37.81l3.08-2.74ZM17,40l-2.39-1.2-2.42,1.15,0.49-2.49-1.93-1.79,2.69-.34L14.71,33l1.17,2.28,2.68,0.39-2,1.74Zm-2.39,6.68c6.21,0,11.25-4.7,11.25-10.47a12,12,0,0,0-.3-2.25,0.49,0.49,0,0,0-.74-0.31l-0.15.08a0.93,0.93,0,0,0-.47.94,8.8,8.8,0,0,1,.16,1.54c0,5-4.37,9.07-9.75,9.07s-9.75-4.07-9.75-9.07,4.37-9.07,9.75-9.07a14.76,14.76,0,0,1,4.63,1.17,0.89,0.89,0,0,0,.18,0l-2.6,1.4a0.62,0.62,0,0,0-.25.87l0,0a0.72,0.72,0,0,0,.94.23l3.66-2h0l0.06,0A0.63,0.63,0,0,0,21.71,28l-1.49-3.82a0.7,0.7,0,0,0-.88-0.38l-0.06,0a0.63,0.63,0,0,0-.41.82L19.76,27a16.31,16.31,0,0,0-5.13-1.27c-6.2,0-11.25,4.7-11.25,10.47S8.43,46.63,14.64,46.63Z" transform="translate(0.36 -23.8)"/></svg>