<svg id="图层_1" data-name="图层 1" xmlns="http://www.w3.org/2000/svg" viewBox="0 0 36 35.01"><defs><style>.cls-1{fill:none;stroke:#ef7b1b;stroke-miterlimit:10;}.cls-2{fill:#ef7b1b;fill-rule:evenodd;}</style></defs><title>04产品</title><path class="cls-1" d="M12.34,0.89H3.66A1.07,1.07,0,0,0,2.58,2v8.68a1.07,1.07,0,0,0,1.08,1.08h8.67a1.07,1.07,0,0,0,1.08-1.08V2A1.07,1.07,0,0,0,12.34.89Zm0,13H3.66A1.07,1.07,0,0,0,2.58,15v8.68a1.07,1.07,0,0,0,1.08,1.08h8.67a1.07,1.07,0,0,0,1.08-1.08V15A1.07,1.07,0,0,0,12.34,13.91Zm13,0H16.68A1.07,1.07,0,0,0,15.59,15v8.68a1.07,1.07,0,0,0,1.08,1.08h8.67a1.07,1.07,0,0,0,1.08-1.08V15A1.07,1.07,0,0,0,25.35,13.91Zm2.78-8.57L22-.8a1.07,1.07,0,0,0-1.54,0L14.33,5.32a1.07,1.07,0,0,0,0,1.54L20.45,13A1.07,1.07,0,0,0,22,13l6.14-6.14A1,1,0,0,0,28.13,5.34Z" transform="translate(2.31 1.63)"/><path class="cls-2" d="M33.69,31.88v1.5h-36v-1.5" transform="translate(2.31 1.63)"/></svg>