<svg id="图层_1" data-name="图层 1" xmlns="http://www.w3.org/2000/svg" viewBox="0 0 20.25 21.31"><defs><style>.cls-1,.cls-2{fill:#e4e4e4;}.cls-1{stroke:#e4e4e4;stroke-miterlimit:10;stroke-width:0.5px;}</style></defs><title>05优惠</title><path class="cls-1" d="M14.39,24.62l-0.32-1.24a11.31,11.31,0,0,0-3.78-4.5c-0.33-.24-0.68-0.48-1-0.73-2-1.39-4.57-3.11-4.55-6.71C4.72,7.24,6.9,5,9.06,4.67s4.14,1,5.31,3.49a5.14,5.14,0,0,1,6.1-2.74C23,6.18,25,9,23.55,13.5L23,13.33c1.34-4.12-.38-6.67-2.68-7.36A4.59,4.59,0,0,0,14.65,9l-0.29.77L14.07,9c-1-2.61-2.92-4.1-4.91-3.79S5.34,7.57,5.31,11.45c0,3.31,2.27,4.87,4.29,6.24,0.38,0.26.73,0.5,1.07,0.75a13.53,13.53,0,0,1,3.71,4.12,25.44,25.44,0,0,1,4.74-5.34l0.4,0.44c-2,1.6-4.69,5-4.86,5.72Z" transform="translate(-4.45 -4.37)"/><path class="cls-2" d="M24.7,15.54H21.95V18.1H21V15.54H18.24V14.71H21V12.15h1v2.56H24.7v0.84Z" transform="translate(-4.45 -4.37)"/></svg>