<svg id="图层_1" data-name="图层 1" xmlns="http://www.w3.org/2000/svg" viewBox="0 0 36 34.06"><defs><style>.cls-1{fill:#e47922;}</style></defs><title>nav_icon_home_selected</title><path class="cls-1" d="M158,222.37v-1.5h36v1.5H158Z" transform="translate(-158 -188.31)"/><path class="cls-1" d="M175.26,188.31a7.28,7.28,0,0,0-3.1,13.87,11,11,0,0,0-7.91,10.56,0.58,0.58,0,0,0,1.15,0,9.87,9.87,0,0,1,9.86-9.86A7.28,7.28,0,1,0,175.26,188.31Zm0,13.42a6.13,6.13,0,1,1,6.13-6.13A6.14,6.14,0,0,1,175.26,201.73Z" transform="translate(-158 -188.31)"/><path class="cls-1" d="M181.93,204a0.58,0.58,0,0,0-.7.91,9.79,9.79,0,0,1,3.88,7.84,0.58,0.58,0,1,0,1.15,0A10.94,10.94,0,0,0,181.93,204Z" transform="translate(-158 -188.31)"/></svg>