<svg id="图层_1" data-name="图层 1" xmlns="http://www.w3.org/2000/svg" viewBox="0 0 12.33 14"><defs><style>.cls-1{fill:#e5e5e3;}</style></defs><title>nav_icon_home_default</title><path class="cls-1" d="M194.19,250a4.08,4.08,0,0,0-1.73,7.76,6.17,6.17,0,0,0-4.43,5.91,0.32,0.32,0,0,0,.64,0,5.53,5.53,0,0,1,5.52-5.52A4.08,4.08,0,1,0,194.19,250Zm0,7.51a3.43,3.43,0,1,1,3.43-3.43A3.44,3.44,0,0,1,194.19,257.52Z" transform="translate(-188.03 -250.01)"/><path class="cls-1" d="M197.93,258.78a0.32,0.32,0,0,0-.39.51,5.48,5.48,0,0,1,2.17,4.39,0.32,0.32,0,1,0,.64,0A6.13,6.13,0,0,0,197.93,258.78Z" transform="translate(-188.03 -250.01)"/></svg>