<svg id="图层_1" data-name="图层 1" xmlns="http://www.w3.org/2000/svg" viewBox="0 0 11.89 14"><defs><style>.cls-1{fill:#e5e5e3;}</style></defs><title>nav_icon_intro_default</title><path class="cls-1" d="M161.75,179.4h-8.83a1.54,1.54,0,0,0-1.53,1.54V192a1.39,1.39,0,0,0,1.38,1.38,1.37,1.37,0,0,0,.67-0.18l3.89-2.2,3.9,2.2a1.37,1.37,0,0,0,.67.18,1.39,1.39,0,0,0,1.38-1.38V180.94A1.54,1.54,0,0,0,161.75,179.4ZM162.63,192a0.72,0.72,0,0,1-.72.72,0.71,0.71,0,0,1-.35-0.09l-4.22-2.38-4.22,2.38a0.71,0.71,0,0,1-.35.09,0.72,0.72,0,0,1-.72-0.72V180.94a0.88,0.88,0,0,1,.87-0.88h8.83a0.88,0.88,0,0,1,.87.88V192Z" transform="translate(-151.39 -179.4)"/><path class="cls-1" d="M154.37,183v0.66h5.95V183h-5.95Zm0,3.63h5.95V186h-5.95v0.66Z" transform="translate(-151.39 -179.4)"/></svg>