<svg id="图层_1" data-name="图层 1" xmlns="http://www.w3.org/2000/svg" viewBox="0 0 36 34.06"><defs><style>.cls-1{fill:#e47922;}</style></defs><title>nav_icon_intro_selected</title><path class="cls-1" d="M177,229.37v-1.5h36v1.5H177Z" transform="translate(-177 -195.31)"/><path class="cls-1" d="M202.88,195.31H187.12a2.75,2.75,0,0,0-2.74,2.75v19.78a2.47,2.47,0,0,0,2.47,2.47A2.44,2.44,0,0,0,188,220l7-3.92,7,3.93a2.44,2.44,0,0,0,1.19.32,2.47,2.47,0,0,0,2.47-2.47V198.07A2.75,2.75,0,0,0,202.88,195.31Zm1.56,22.53a1.29,1.29,0,0,1-1.29,1.29,1.27,1.27,0,0,1-.62-0.17L195,214.72,187.47,219a1.27,1.27,0,0,1-.62.17,1.29,1.29,0,0,1-1.29-1.29V198.07a1.57,1.57,0,0,1,1.56-1.57h15.76a1.57,1.57,0,0,1,1.56,1.57v19.78Z" transform="translate(-177 -195.31)"/><path class="cls-1" d="M189.69,201.8V203h10.62V201.8H189.69Zm0,6.49h10.62v-1.18H189.69v1.18Z" transform="translate(-177 -195.31)"/></svg>