<svg xmlns="http://www.w3.org/2000/svg" width="16" height="16" viewBox="0 0 16 16">
  <defs>
    <style>
      .cls-1 {
        fill: #47a6b4;
        fill-rule: evenodd;
      }
    </style>
  </defs>
  <path id="矩形_8" data-name="矩形 8" class="cls-1" d="M1132.89,398a8,8,0,1,0,8.11,7.916,7.984,7.984,0,0,0-8.11-7.916h0Zm0.11,13.72h-0.06a1.1,1.1,0,0,1-1.09-1.184,1.118,1.118,0,0,1,1.12-1.126H1133a1.126,1.126,0,0,1,1.13,1.183,1.081,1.081,0,0,1-1.13,1.127h0Zm2.93-5.945a5.2,5.2,0,0,1-1.04.9l-0.54.366a1.324,1.324,0,0,0-.53.648,1.09,1.09,0,0,0-.09.535v0.085h-2.02v-0.169a2.175,2.175,0,0,1,.33-1.437,8.281,8.281,0,0,1,1.5-1.183,2.155,2.155,0,0,0,.36-0.367,1.126,1.126,0,0,0,.31-0.732,1.31,1.31,0,0,0-.28-0.845,1.119,1.119,0,0,0-.99-0.366,1.1,1.1,0,0,0-1.01.45,1.824,1.824,0,0,0-.31.986v0.085h-2.08v-0.085a3.017,3.017,0,0,1,1.35-2.676,3.543,3.543,0,0,1,1.94-.507,4.491,4.491,0,0,1,2.54.7,2.488,2.488,0,0,1,1.01,2.141,2.354,2.354,0,0,1-.45,1.465h0Z" transform="translate(-1125 -398)"/>
</svg>
